<?xml version="1.0" encoding="utf-8"?>
<!-- Generator: Adobe Illustrator 19.2.1, SVG Export Plug-In . SVG Version: 6.00 Build 0)  -->
<svg version="1.1" id="signature" xmlns="http://www.w3.org/2000/svg" xmlns:xlink="http://www.w3.org/1999/xlink" x="0px" y="0px"
	 viewBox="0 0 370.7 86" style="enable-background:new 0 0 370.7 86;" xml:space="preserve" class="signature">
<g fill="#fff">
	<path d="M41.2,41.9c-1.6,0.3-3.5,2.4-6.8,14.8c-0.3-2.5-0.8-6.2,1.3-15.4c0,0,0,0,0,0v0c0.1-0.3-0.1-0.5-0.4-0.6
		c-0.3-0.1-0.5,0.1-0.6,0.4c0,0,0,0,0,0c-1.4,6.2-6,19.2-19.5,19.9C27,58.7,29,49.4,31.1,39.7c0.4-2,0.9-4.1,1.4-6.1
		c1.5-5.5,0.2-9.7-3.3-11.7c-0.7-0.4-1.5-0.7-2.3-0.8c-0.1-0.1-0.2-0.2-0.4-0.2c0,0,0,0,0,0c-0.1,0-0.2,0-0.3,0.1
		c-4.3-0.6-9.6,1.7-13.8,6.2c-4.2,4.5-4.1,5.8-3.5,6.4c1.5,1.6,8-2.3,9.3-3.3c0.2-0.2,0.3-0.5,0.1-0.7c-0.2-0.2-0.5-0.3-0.7-0.1
		c-2.5,1.9-7.4,4-8,3.4c0,0-0.5-0.8,3.5-5.1c4.3-4.6,9.1-6.3,12.8-5.9c-0.7,6-9.3,31.8-12.1,38.2c-1.4,0.2-3,0.3-4.7,0.3
		c-0.3,0-0.5,0.2-0.5,0.5c0,0.3,0.2,0.5,0.4,0.5c1.8,0.4,3.6,0.5,5.2,0.5c10.7,0,16.3-7.2,19.2-13.7c-0.6,4.6-0.3,7,0,8.8
		c0.1,1.1,0.3,1.9,0.1,2.9c-0.1,0.4-0.2,0.9-0.3,1.4c-0.1,0.3,0.1,0.5,0.3,0.6c0.3,0.1,0.5-0.1,0.6-0.3c0.2-0.5,0.3-1,0.4-1.5
		c2.8-11.2,5.2-17,6.9-17.3c0.7-0.1,1.4,0.9,2.1,1.8c0.2,0.2,0.5,0.3,0.7,0.1c0.2-0.2,0.3-0.5,0.1-0.7C43.5,43,42.5,41.7,41.2,41.9z
		 M26.9,22.2c0.6,0.2,1.3,0.4,1.8,0.7c3.1,1.7,4.2,5.6,2.9,10.6c-0.5,2-1,4.1-1.4,6.1C28,49.3,26.2,57.9,15,60
		C18.2,52.5,26.2,28.3,26.9,22.2z"/>
	<path d="M46.3,58.2c-0.1-0.1-0.4-0.2-0.5-0.1c-0.3,0.2-0.4,0.7-0.4,0.8c0,0,0,0.1,0,0.1c0,0.2-0.1,0.5-0.2,1
		c-0.1,0.3,0.1,0.5,0.4,0.6c0,0,0.1,0,0.1,0c0.2,0,0.4-0.1,0.5-0.4C46.6,58.6,46.6,58.5,46.3,58.2z"/>
	<path d="M192.3,43.9C192.3,43.9,192.3,43.9,192.3,43.9c-0.3,0-0.5,0.2-0.5,0.5c0,0-0.1,2-3.3,6.2c-3.2,5.4-7,7.8-8.6,6.9
		c-1.7-0.9-2.1-5.5,2.2-15.7c0.1-0.2,0-0.5-0.2-0.6c-0.2-0.1-0.5-0.1-0.6,0.1c-0.3,0.4-0.7,1.1-1.2,1.9c0-0.1,0-0.2,0-0.3
		c-0.1-0.2-0.3-0.4-0.6-0.3c-12,2.2-14.6,6.5-16.9,10.3c-0.8,1.3-1.5,2.5-2.5,3.5c-2,2.1-4.3,3-6.3,2.4c-0.4-0.1-0.8-0.3-1.2-0.6
		c3.4-8.3,6.8-17.2,7.8-20.8c0.1-0.3-0.1-0.5-0.3-0.6c-0.3-0.1-0.5,0.1-0.6,0.3c-1,3.6-4.3,12.2-7.6,20.4c-1.6-1.5-2.8-4-3.5-7.6
		c-0.6-2.8-1.4-4.2-2.6-4.4c-2-0.4-4.2,3-6.9,7.2c-1.4,2.3-2.9,4.6-4.4,6.3c-1.2,1.4-2.3,1.8-3.3,1.3c-0.7-0.4-1.2-1.2-1.7-2.4
		c0.8-0.7,1.6-1.6,2.4-2.7c3.4-4.7,3.5-9.5,2.1-12.1c-0.6-1.1-1.5-1.7-2.5-1.6c-0.7,0.1-2,0.6-3,3.3c-1.4,4-1.4,9.3-0.2,12.8
		c-1.9,1.7-3.8,2.5-5.6,2.4c-2.3-0.1-4.4-1.7-5.9-4.2c-1.7-2.9-1.1-11.5,0.3-19.9c2.8-2.9,5.2-6,6.8-9.4c2.6-5.4,3.4-9.2,2.3-10.6
		c-0.4-0.5-0.9-0.7-1.5-0.6c-1.7,0.3-4.2,3.1-5.7,7.9c-1.1,3.4-2.1,7.8-2.9,12.3c-2.4,2.5-5.2,4.8-7.9,6.8
		c0.4-8.4,1.1-18.1,1.9-27.9c0-0.3-0.2-0.5-0.4-0.5c-0.3,0-0.5,0.2-0.5,0.4c-3.4,25.5-33.6,46.7-34.9,47.6c-0.2,0.2-0.3,0.5-0.1,0.7
		c0.2,0.2,0.5,0.3,0.7,0.1c0.9-0.6,9-6.3,17.1-14.9c8.4-8.9,14-17.8,16.7-26.4c-0.6,7.7-1,15.1-1.4,21.7c-7.1,5.1-14,8.5-16.2,9.5
		c-0.3,0.1-0.4,0.4-0.2,0.7c0.1,0.2,0.4,0.4,0.7,0.2c2.2-1,8.8-4.3,15.7-9.1c-0.7,14.2-1,24.3-1,24.5c0,0.3,0.2,0.5,0.5,0.5
		c0,0,0,0,0,0c0.3,0,0.5-0.2,0.5-0.5c0-0.2,0.2-10.6,1-25.2c2.6-1.9,5.3-4.1,7.7-6.4c-1.3,8.1-1.6,16.3,0.1,19.2
		c1.7,2.9,4.1,4.6,6.7,4.7c1.5,0.1,3.6-0.4,6-2.4c0.5,1.2,1.2,2,2,2.5c0.4,0.2,0.8,0.4,1.3,0.4c0.9,0,2-0.5,3.2-1.9
		c1.5-1.8,3.1-4.2,4.5-6.4c2.1-3.3,4.5-7,5.8-6.7c0.4,0.1,1.1,0.6,1.8,3.6c0.9,4.6,2.5,7.1,4,8.4c-3,7.5-5.9,14.3-6.8,16.3l-0.8,1.7
		c-1.1,2.5-1.3,2.8-2.3,3.7c-0.2,0.2-0.2,0.5,0,0.7c0.1,0.1,0.2,0.2,0.4,0.2c0.1,0,0.2,0,0.3-0.1c1.1-1.1,1.3-1.5,2.5-4.1l0.8-1.7
		c0.9-1.9,3.7-8.7,6.7-16.1c0.5,0.3,0.9,0.5,1.3,0.6c2.4,0.7,5-0.3,7.3-2.7c1.1-1.2,1.9-2.4,2.7-3.7c2-3.3,4-6.6,12-8.9
		c-6.7,3.8-10,8.5-10.1,11.7c0,1.2,0.4,2.1,1.1,2.5c0.5,0.3,1.7,0.5,3.5-0.9c3.8-3.1,7.1-7.9,9.4-11.6c-2.2,6.7-2.2,11.1,0.1,12.3
		c2.5,1.2,6.7-1.8,9.9-7.3c3.5-4.5,3.5-6.7,3.5-6.8C192.8,44.1,192.6,43.9,192.3,43.9z M119.8,23.6c1.4-4.6,3.7-7,4.9-7.2
		c0.1,0,0.1,0,0.1,0c0.2,0,0.3,0.1,0.4,0.2c0.6,0.8,0.4,3.8-2.4,9.6c-1.4,2.8-3.3,5.5-5.6,8.1C118,30.3,118.9,26.5,119.8,23.6z
		 M129.2,45.3c0.6-1.6,1.4-2.6,2.2-2.7c0,0,0.1,0,0.1,0c0.5,0,1,0.4,1.4,1.1c1,1.9,1.4,6.3-2,11c-0.6,0.9-1.3,1.6-1.9,2.3
		C128,53.8,127.9,49.1,129.2,45.3z M169.3,56.9c-1,0.8-1.9,1.1-2.4,0.8c-0.4-0.2-0.6-0.8-0.6-1.5c0.1-2.5,3-8.4,13.4-12.7
		c0.1,0,0.1-0.1,0.2-0.1c-0.1,0.1-0.1,0.2-0.2,0.3C177.5,47.3,173.7,53.4,169.3,56.9z"/>
	<path d="M358.9,30.3c-3.6-0.6-9.5,4.9-15.6,14.5c0.9-1.9,2.2-4.3,4.1-7.8c0.1-0.2,0-0.5-0.2-0.7c-0.2-0.1-0.5-0.1-0.7,0.2
		c-7.2,11.4-13.8,12.2-15.1,12.3c-0.9,0.1-2.4-0.5-3.3-1.5c5.4-3.2,10-10.2,10.2-13.1c0.1-0.9-0.3-1.4-0.7-1.5
		c-0.6-0.3-1.9-0.4-5.4,2.5c-6.4,5.2-6.7,8.9-5.9,11.1c0.1,0.2,0.2,0.5,0.3,0.7c-0.3,0.1-0.6,0.3-0.9,0.4c-1.8,0.4-3.4,0.9-4.8,1.5
		c-2,0.7-3.6,1.3-4.3,0.7c-0.8-0.6-1-2.6-0.6-6.2c0.3-3.2,0.2-5-0.4-5.8c3.6-4.3,6.6-8.4,7.7-10.7c1.9-3.9,2-9,0.8-10.7
		c-0.4-0.6-0.9-0.7-1.2-0.6c-0.8,0.1-1.5,0.9-2.3,2.7c-1.1,2.4-3.4,7.1-5.8,12.1c-2.3,4.7-4.7,9.7-6.6,13.7
		c-3.9,3.8-7.8,6.8-10.3,7.4c-1.5,0.3-2.5-0.4-3-1.1c-0.4-0.6-0.8-1.3-0.9-2.1c1.1-1.2,2-2.5,2.9-3.7c2.5-3.4,4.7-6.4,8-6.7
		c0.3,0,0.4-0.3,0.4-0.5c0-0.3-0.2-0.5-0.5-0.5c-6.9-0.3-9.8,3.2-10.9,5.3c-1,1.9-1.3,4-1,5.9c-1.1,1.2-2.2,2.3-3.6,3.4
		c-1,0.8-1.8,1.4-2.4,1.9c0.6-1.7,1.5-4.7,2-9.5c0-0.1,0-0.2-0.1-0.3c-0.4-0.7-0.8-1.4-1.1-2c-0.4-1.2-0.9-2.2-1.7-2.9
		c-0.4-1.7,1.2-3.1,7.7-8.2c0.2-0.2,0.3-0.5,0.1-0.7c-0.2-0.2-0.5-0.3-0.7-0.1c-3.9,2.6-8.5,6.1-8.6,8.3c0,0.5,0.2,0.9,0.6,1.3
		c0,0,0,0,0.1,0c0.2,0.6,0.6,1.2,1.1,2c0.2,0.2,0.3,0.5,0.5,0.7c0.6,2.2,0.5,5.4-0.4,9c-0.5,2.3-2.3,3.2-3.7,3.4
		c-1,0.1-2-0.2-2.2-0.7c-0.3-0.5,0.3-1.2,0.7-1.6c0.2-0.2,0.2-0.5,0.1-0.7c-0.2-0.2-0.4-0.3-0.7-0.1c-3.9,2.4-6.6,3.1-7.8,2.1
		c-1-0.9-1.4-3.4,1.2-10.2c0.6-1.2,0.9-2.1,1.2-2.9c0.1-0.2,0.2-0.4,0.2-0.7c0.2-0.4,0.4-0.9,0.6-1.4c0.1-0.2,0-0.5-0.2-0.7
		c-0.2-0.1-0.5,0-0.7,0.2c-0.2,0.5-0.4,0.9-0.6,1.4c-0.5,1.2-1,2.4-1.4,3.5c-0.9,1.8-2.3,4.1-5,7.4c-3.1,3.8-4.6,4.5-5,4.2
		c-0.2-0.1-1.5-1.3,3.3-13.8c0.1-0.2,0-0.5-0.3-0.6c-0.2-0.1-0.5,0-0.7,0.2c-0.4,0.8-0.7,1.6-1.1,2.5c-0.6,1.6-1.4,3.5-3,6.5
		c-2.6,5.4-5.6,8-7.2,8.1c-0.5,0-0.8-0.1-1.1-0.5c-0.7-1-0.7-3.4,0.5-7.4c1.6-2.4,2.7-5,3.3-8c0.1-0.2-0.1-0.5-0.3-0.6
		c-0.2-0.1-0.5,0-0.6,0.3c-1.4,2.9-2.5,5.6-3.3,7.9c-1.6,2.4-3.8,4.6-6.5,6.6c-1.5,1.1-2.4,1.2-2.6,0.9c-1-1.3,2.6-9.1,11.6-15.9
		c0.2-0.1,0.2-0.3,0.2-0.5c0-0.2-0.2-0.3-0.4-0.4c-5.8-0.9-10.2,5.9-14.1,11.9c-2.1,3.2-4,6.1-5.9,7.5c-1.1,0.8-2.1,1.1-3,0.7
		c-3.4-1.4-5.5-11-6.8-19.2c0.6,0.6,1.2,1,2,1.1c3.3,0.7,7.6-3.5,10.7-7c3.4-4,4-12,3.6-16c-0.2-2.3-0.7-2.7-0.9-2.8l-0.2-0.2
		c-0.5-0.4-1.3-1.1-2.4-0.8c-1.9,0.4-4.1,3-7,8.4c-0.7,1.3-1.3,2.5-1.9,3.5c-2,3.7-3.4,6.2-5,10.6c-0.2,0.1-0.3,0.3-0.3,0.5
		c0,0.1,0,0.1,0,0.2c-0.6,1.9-1.3,4.1-2.1,6.8c0.5-2.5,1-5.1,1.4-7.7c3.2-6.9,6-14.6,6.8-21c0.7-5.8,0.6-9.2-0.4-9.9
		c-0.3-0.2-0.6-0.2-0.9-0.1c-1.3,0.6-2.2,3.9-2.4,6.7c-0.3,3.4-2.1,13.6-4,23.8c-4.1,8.9-8.8,16.6-10.5,18.5
		c-0.7,0.8-1.9,2.2-2.2,2.2c-0.1,0-0.3-0.2-0.4-0.3c-0.2-0.2-0.6-0.6-1-0.9c-0.2-0.2-0.5-0.1-0.7,0.1c-0.2,0.2-0.1,0.5,0.1,0.7
		c0.4,0.3,0.7,0.5,0.9,0.8c0.4,0.3,0.7,0.6,1.1,0.6c0.6,0,1.2-0.6,2.9-2.5c1.5-1.8,5.3-7.8,9-15.3c-1.6,8.8-3.2,16.9-3.9,20
		c-0.1,0.3,0.1,0.5,0.4,0.6c0,0,0.1,0,0.1,0c0.2,0,0.4-0.2,0.5-0.4c2.5-10,4.1-16.2,5.5-20.7c2,12.8,4.3,19.2,7.4,20.4
		c1.2,0.5,2.5,0.2,3.9-0.8c2-1.5,4-4.6,6.1-7.8c3.4-5.2,7.3-11.1,11.8-11.5c-8.2,6.7-12.2,14.5-10.7,16.5c0.5,0.6,1.5,1,4-0.7
		c2-1.5,3.7-3,5.2-4.8c-0.6,2.6-0.5,4.6,0.3,5.8c0.5,0.7,1.2,1,2,1c2.4-0.2,5.6-3.6,8-8.6c0-0.1,0.1-0.2,0.1-0.2
		c-1.1,4.3-0.5,5.4,0.2,5.8c0.4,0.3,1.8,1,6.3-4.5c1.2-1.4,2.1-2.6,2.8-3.7c-0.9,3.7-0.8,6,0.5,7.1c1.4,1.2,3.8,0.9,7.3-1
		c-0.1,0.4,0,0.8,0.1,1c0.4,0.9,1.7,1.5,3.2,1.3c0.9-0.1,1.8-0.4,2.6-1c-0.1,0.4-0.1,0.6,0.2,0.8c0.4,0.3,0.6,0,1.3-0.6
		c0.6-0.5,1.5-1.3,2.9-2.3c1.2-0.9,2.3-1.9,3.3-3c0.2,0.7,0.5,1.3,0.9,1.8c1,1.3,2.4,1.9,4,1.5c2.4-0.5,5.6-2.8,9-5.9
		c-1.1,2.4-1.9,4.2-2,5c-0.1,0.2,0.1,0.5,0.3,0.6c0.2,0.1,0.5,0,0.6-0.2c2.2-4.3,3.8-7.2,5.1-9.3c1.3-1.4,2.6-2.8,3.8-4.2
		c0.2,0.4,0.4,1.6,0.1,4.9c-0.4,4.1-0.2,6.2,1,7.1c1.2,0.9,3,0.3,5.3-0.6c1.4-0.5,3-1.1,4.8-1.4c0.4-0.1,0.8-0.3,1.2-0.5
		c1.2,1.3,2.9,2.1,4.3,2c3-0.1,7.4-2.2,11.9-7.4c-2.6,4.9-3.1,6.5-3.7,8.5c-0.1,0.2,0.1,0.5,0.3,0.6c0.2,0.1,0.5,0,0.6-0.2
		c6.8-12.5,14.3-20.7,18.1-20.1c1.3,0.2,2.1,1.5,2.5,3.8c0,0.3,0.3,0.5,0.6,0.4c0.3,0,0.5-0.3,0.4-0.6
		C361.8,32.2,360.7,30.6,358.9,30.3z M227.5,12.7c0.3-3.5,1.5-5.7,1.8-5.9c0,0,1,0.8,0,9c-0.6,5-2.6,11-5,16.7
		C225.9,23.8,227.2,15.7,227.5,12.7z M230.2,26.9c0.6-1.1,1.2-2.2,1.9-3.5c3.3-6.2,5.2-7.7,6.3-7.9c0.7-0.1,1.1,0.3,1.6,0.6
		c0.1,0.1,0.2,0.1,0.2,0.2c0.9,0.9,1.4,12.4-2.9,17.4c-4,4.8-7.5,7.1-9.7,6.7c-1.1-0.2-1.9-1.1-2.5-2.7
		C226.8,33.2,228.2,30.6,230.2,26.9z M295,42.4c0.8-1.5,2.7-3.9,6.7-4.6c-2.1,1.3-3.7,3.5-5.5,6c-0.7,1-1.5,2-2.2,3
		C294,45.3,294.3,43.7,295,42.4z M314.8,37.1c-0.9,0.1-2.1,1.2-4.2,4.6c1.7-3.5,3.6-7.5,5.3-11.1c2.4-5,4.7-9.7,5.8-12.1
		c0.9-2,1.4-2.1,1.5-2.1c0,0,0,0,0,0c0.1,0,0.2,0.1,0.3,0.2c0.9,1.3,0.9,6-0.9,9.7C321.4,28.9,318.4,33,314.8,37.1z M327.6,46.6
		c-0.1-0.2-0.2-0.4-0.3-0.6c-1-2.7,1-6.2,5.6-10c2.6-2.1,3.7-2.4,4.1-2.4c0.1,0,0.2,0,0.2,0c0.2,0.1,0.2,0.4,0.1,0.6
		C337.2,36.9,332.7,43.7,327.6,46.6z"/>
</g>
</svg>
