<?xml version="1.0" encoding="utf-8"?>
<!-- Generator: Adobe Illustrator 18.1.1, SVG Export Plug-In . SVG Version: 6.00 Build 0)  -->
<svg version="1.1" id="map" xmlns="http://www.w3.org/2000/svg" xmlns:xlink="http://www.w3.org/1999/xlink" x="0px" y="0px" viewBox="0 0 444 324" enable-background="new 0 0 444 324" xml:space="preserve">
<g>
	<defs>
		<rect id="SVGID_1_" width="444" height="324"/>
	</defs>
	<clipPath id="SVGID_2_">
		<use xlink:href="#SVGID_1_"  overflow="visible"/>
	</clipPath>
	<polygon clip-path="url(#SVGID_2_)" fill="#FFFFFF" points="-43.2,49.7 451.3,55 451.3,73 -92.7,65.7 -92.7,45 	"/>
	<path clip-path="url(#SVGID_2_)" fill="#FFFFFF" d="M158.7-76.3c0,0,2.7,288,2,304c-0.7,16-4.7,58.7-14.7,74
		c-10,15.3-87.3,116-87.3,116h16c0,0,79.3-112,85.3-120.7s16-48,15.3-61.3c-0.7-13.3,1-350.7,1-350.7h-15.7L158.7-76.3z"/>
	<path clip-path="url(#SVGID_2_)" fill="#FFFFFF" d="M-74.5,121.5c35.8,21.5,43,35.5,78.5,37s453,4,453,4v17c0,0-430-5.5-449-5.5
		s-53-7.8-72-29.2S-92.7,119-92.7,119L-74.5,121.5z"/>
	<polygon clip-path="url(#SVGID_2_)" fill="#FFFFFF" points="104.5,64.5 102.5,166.9 110,167 112,68.4 	"/>
	<polygon clip-path="url(#SVGID_2_)" fill="#FFFFFF" points="383,-81 379,384.5 392.5,384.5 400,-81 	"/>
	<path clip-path="url(#SVGID_2_)" fill="#FFFFFF" d="M34,170c0,0-4.5,18.5,0,25s101.5,71.5,101.5,71.5s15,7.6,39.9,10.5
		c32.9,3.8,281.6,3.5,281.6,3.5l2.5,13c0,0-265.1,0.6-280.2-0.5s-31.8-4.5-51.3-15s-86.5-59.5-96-67.5s-10.5-28-10-40.5
		C38,170,34,170,34,170z"/>
	<g clip-path="url(#SVGID_2_)">
		<path d="M32.1,52.7h3.3v9.8h-1v-8.9h-2.4V52.7z"/>
		<path d="M43.5,57.6c0.6,0.5,0.9,1.1,0.9,1.9c0,0.6-0.2,1.1-0.5,1.6c-0.3,0.5-0.7,0.8-1.3,1.1c-0.6,0.3-1.2,0.4-2,0.4
			c-0.6,0-1.2-0.1-1.8-0.3c-0.6-0.2-1.1-0.4-1.6-0.7l0.4-0.8c0.4,0.3,0.8,0.5,1.3,0.6c0.5,0.2,1,0.2,1.5,0.2c0.9,0,1.6-0.2,2.1-0.6
			c0.5-0.4,0.8-0.9,0.8-1.6s-0.3-1.2-0.8-1.5c-0.5-0.3-1.2-0.5-2.1-0.5h-1.3v-0.6l3.3-3.4h-4.9v-0.9h6.1v0.6l-3.5,3.5l0.6,0
			C42.1,56.9,42.9,57.2,43.5,57.6z"/>
		<path d="M50.3,62c-0.5,0.3-1,0.5-1.6,0.5c-0.6,0-1-0.2-1.3-0.5c-0.3-0.3-0.5-0.9-0.5-1.6v-4.4h-1l0-0.7h1.1v-1.9h0.9v1.9l2.4,0
			v0.7h-2.4v4.2c0,0.9,0.3,1.4,1,1.4c0.4,0,0.8-0.1,1.2-0.4L50.3,62z"/>
		<path d="M57.9,55.9c0.5,0.5,0.7,1.2,0.7,2.1v4.5h-1v-4.3c0-0.7-0.2-1.2-0.6-1.6c-0.4-0.4-0.9-0.6-1.6-0.6c-0.8,0-1.4,0.3-1.9,0.8
			C53.2,57.3,53,58,53,58.9v3.6H52V52.1H53v4.8c0.5-1.2,1.5-1.7,2.9-1.8C56.7,55.1,57.4,55.4,57.9,55.9z"/>
		<path d="M69.3,53.7c-0.5-0.1-0.9-0.2-1.3-0.2c-0.7,0-1.2,0.1-1.6,0.4c-0.4,0.3-0.6,0.6-0.6,1.1c0,0.4,0.1,0.7,0.3,1
			c0.2,0.3,0.5,0.5,0.8,0.6c0.3,0.1,0.8,0.3,1.3,0.5c0.7,0.2,1.2,0.4,1.6,0.6c0.4,0.2,0.8,0.5,1,0.8c0.3,0.4,0.4,0.8,0.4,1.4
			c0,0.5-0.1,1-0.4,1.4c-0.3,0.4-0.7,0.7-1.2,0.9c-0.5,0.2-1.1,0.3-1.8,0.3c-0.7,0-1.3-0.1-2-0.4c-0.6-0.3-1.2-0.6-1.7-1.1l0.4-0.8
			c0.4,0.4,0.9,0.8,1.5,1c0.6,0.2,1.1,0.4,1.7,0.4c0.7,0,1.3-0.2,1.8-0.5c0.4-0.3,0.7-0.7,0.7-1.2c0-0.4-0.1-0.7-0.3-1
			c-0.2-0.3-0.5-0.5-0.8-0.6c-0.3-0.1-0.8-0.3-1.4-0.5c-0.7-0.2-1.2-0.4-1.6-0.6c-0.4-0.2-0.7-0.5-1-0.8c-0.3-0.4-0.4-0.8-0.4-1.4
			c0-0.5,0.1-0.9,0.4-1.3c0.3-0.4,0.7-0.7,1.2-0.9c0.5-0.2,1.1-0.3,1.8-0.3c0.5,0,1.1,0.1,1.6,0.2c0.5,0.2,1,0.4,1.4,0.6l-0.4,0.8
			C70.2,54.1,69.8,53.9,69.3,53.7z"/>
		<path d="M77.2,62c-0.5,0.3-1,0.5-1.6,0.5c-0.6,0-1-0.2-1.3-0.5c-0.3-0.3-0.5-0.9-0.5-1.6v-4.4h-1l0-0.7h1.1v-1.9h0.9v1.9l2.4,0
			v0.7h-2.4v4.2c0,0.9,0.3,1.4,1,1.4c0.4,0,0.8-0.1,1.2-0.4L77.2,62z"/>
		<path d="M94.7,52.7h1l-3.3,9.8h-1l-2.8-8.6l-2.8,8.6h-1l-3.3-9.8h1l2.8,8.8l2.8-8.8h1l2.8,8.8L94.7,52.7z"/>
	</g>
	<g clip-path="url(#SVGID_2_)">
		<path d="M43.6,161.7h3.3v9.8h-1v-8.9h-2.4V161.7z"/>
		<path d="M56.1,170.6v0.9h-6.9v-0.8l3.9-4c0.4-0.5,0.8-0.9,1.1-1.4c0.3-0.4,0.4-0.8,0.4-1.2c0-0.5-0.2-0.9-0.6-1.2
			c-0.4-0.3-0.9-0.4-1.6-0.4c-0.5,0-0.9,0.1-1.4,0.3s-0.9,0.5-1.3,0.9L49,163c0.5-0.4,1-0.7,1.6-1c0.6-0.2,1.2-0.3,1.7-0.3
			c0.9,0,1.7,0.2,2.2,0.6c0.6,0.4,0.8,1,0.8,1.7c0,0.4-0.2,0.9-0.5,1.5c-0.3,0.5-0.8,1.1-1.3,1.7l-3.3,3.4H56.1z"/>
		<path d="M61.6,171c-0.5,0.3-1,0.5-1.6,0.5c-0.6,0-1-0.2-1.3-0.5c-0.3-0.3-0.5-0.9-0.5-1.6v-4.4h-1l0-0.7h1.1v-1.9h0.9v1.9l2.4,0
			v0.7h-2.4v4.2c0,0.9,0.3,1.4,1,1.4c0.4,0,0.8-0.1,1.2-0.4L61.6,171z"/>
		<path d="M69.3,164.9c0.5,0.5,0.7,1.2,0.7,2.1v4.5h-1v-4.3c0-0.7-0.2-1.2-0.6-1.6c-0.4-0.4-0.9-0.6-1.6-0.6c-0.8,0-1.4,0.3-1.9,0.8
			c-0.5,0.5-0.7,1.2-0.7,2.1v3.6h-0.9v-10.4h0.9v4.8c0.5-1.2,1.5-1.7,2.9-1.8C68.1,164.1,68.8,164.4,69.3,164.9z"/>
		<path d="M80.7,162.7c-0.5-0.1-0.9-0.2-1.3-0.2c-0.7,0-1.2,0.1-1.6,0.4c-0.4,0.3-0.6,0.6-0.6,1.1c0,0.4,0.1,0.7,0.3,1
			c0.2,0.3,0.5,0.5,0.8,0.6c0.3,0.1,0.8,0.3,1.3,0.5c0.7,0.2,1.2,0.4,1.6,0.6c0.4,0.2,0.8,0.5,1,0.8c0.3,0.4,0.4,0.8,0.4,1.4
			c0,0.5-0.1,1-0.4,1.4c-0.3,0.4-0.7,0.7-1.2,0.9c-0.5,0.2-1.1,0.3-1.8,0.3c-0.7,0-1.3-0.1-2-0.4c-0.6-0.3-1.2-0.6-1.7-1.1l0.4-0.8
			c0.4,0.4,0.9,0.8,1.5,1c0.6,0.2,1.1,0.4,1.7,0.4c0.7,0,1.3-0.2,1.8-0.5c0.4-0.3,0.7-0.7,0.7-1.2c0-0.4-0.1-0.7-0.3-1
			c-0.2-0.3-0.5-0.5-0.8-0.6c-0.3-0.1-0.8-0.3-1.4-0.5c-0.7-0.2-1.2-0.4-1.6-0.6s-0.7-0.5-1-0.8c-0.3-0.4-0.4-0.8-0.4-1.4
			c0-0.5,0.1-0.9,0.4-1.3c0.3-0.4,0.7-0.7,1.2-0.9c0.5-0.2,1.1-0.3,1.8-0.3c0.5,0,1.1,0.1,1.6,0.2c0.5,0.2,1,0.4,1.4,0.6l-0.4,0.8
			C81.6,163.1,81.2,162.9,80.7,162.7z"/>
		<path d="M88.6,171c-0.5,0.3-1,0.5-1.6,0.5c-0.6,0-1-0.2-1.3-0.5c-0.3-0.3-0.5-0.9-0.5-1.6v-4.4h-1l0-0.7h1.1v-1.9h0.9v1.9l2.4,0
			v0.7h-2.4v4.2c0,0.9,0.3,1.4,1,1.4c0.4,0,0.8-0.1,1.2-0.4L88.6,171z"/>
		<path d="M106,161.7h1l-3.3,9.8h-1l-2.8-8.6l-2.8,8.6h-1l-3.3-9.8h1l2.8,8.8l2.8-8.8h1l2.8,8.8L106,161.7z"/>
	</g>
	<g clip-path="url(#SVGID_2_)">
		<path d="M67.9,223.1c0.2,0.7,0.1,1.3-0.4,1.9c-0.3,0.4-0.7,0.7-1.1,0.8c-0.4,0.1-0.9,0.1-1.5,0c0.4,0.6,0.6,1.1,0.7,1.7
			c0,0.6-0.1,1.1-0.5,1.6c-0.5,0.7-1.2,1.1-2,1.1c-0.8,0-1.7-0.3-2.5-1c-0.9-0.7-1.4-1.4-1.7-2.2c-0.2-0.8-0.1-1.5,0.4-2.2
			c0.4-0.5,0.8-0.8,1.4-0.9c0.6-0.1,1.2-0.1,1.8,0.2c-0.3-0.5-0.5-0.9-0.5-1.4c0-0.5,0.1-0.9,0.4-1.3c0.4-0.6,1-0.9,1.7-0.9
			c0.7,0,1.4,0.3,2.2,0.8C67.2,221.8,67.7,222.5,67.9,223.1z M61.6,224.6c-0.6,0-1.1,0.2-1.4,0.7c-0.4,0.5-0.5,1.1-0.4,1.7
			c0.2,0.6,0.6,1.1,1.3,1.6c0.7,0.5,1.3,0.7,1.9,0.7s1.1-0.3,1.5-0.8c0.4-0.5,0.5-1,0.3-1.6c-0.2-0.6-0.6-1.1-1.3-1.6
			C62.8,224.8,62.2,224.6,61.6,224.6z M64.4,221.2c-0.5,0-0.9,0.2-1.3,0.7s-0.4,0.9-0.3,1.4c0.1,0.5,0.5,1,1.1,1.4
			c0.6,0.4,1.1,0.6,1.6,0.6s0.9-0.3,1.3-0.7c0.3-0.4,0.4-0.9,0.3-1.4s-0.5-0.9-1.1-1.4C65.4,221.4,64.9,221.2,64.4,221.2z"/>
		<path d="M68.6,234.5c-0.6,0-1.2-0.2-1.6-0.5c-0.5-0.3-0.7-0.7-0.8-1.2c-0.1-0.5,0.1-1,0.5-1.5l2.6-3.5l-0.8-0.6l0.4-0.6l0.9,0.6
			l1.1-1.5l0.8,0.6l-1.1,1.5l1.9,1.4l-0.4,0.6l-1.9-1.4l-2.5,3.4c-0.5,0.7-0.5,1.3,0,1.7c0.3,0.2,0.7,0.4,1.2,0.4L68.6,234.5z"/>
		<path d="M78.4,234.1c0.1,0.7-0.1,1.4-0.6,2.1l-2.7,3.6l-0.8-0.6l2.5-3.4c0.4-0.6,0.6-1.1,0.5-1.6c-0.1-0.5-0.4-1-0.9-1.4
			c-0.7-0.5-1.3-0.6-2-0.5c-0.7,0.1-1.3,0.6-1.8,1.3l-2.1,2.9l-0.8-0.6l6.2-8.3l0.8,0.6l-2.8,3.8c1.1-0.6,2.2-0.5,3.4,0.3
			C77.9,232.8,78.3,233.4,78.4,234.1z"/>
		<path d="M88.8,239.2c-0.3-0.4-0.6-0.7-1-1c-0.5-0.4-1.1-0.6-1.5-0.6c-0.5,0-0.9,0.1-1.1,0.5c-0.2,0.3-0.3,0.7-0.3,1
			c0,0.3,0.1,0.7,0.3,1c0.2,0.3,0.4,0.7,0.8,1.2c0.4,0.6,0.7,1,0.9,1.4c0.2,0.4,0.3,0.8,0.3,1.3s-0.2,0.9-0.5,1.4
			c-0.3,0.4-0.7,0.7-1.2,0.9c-0.5,0.1-1,0.2-1.5,0c-0.6-0.1-1.1-0.4-1.7-0.8c-0.5-0.4-1-0.9-1.4-1.5c-0.4-0.6-0.6-1.2-0.7-1.9
			l0.8-0.4c0.1,0.6,0.3,1.2,0.6,1.7c0.3,0.5,0.7,1,1.2,1.3c0.6,0.4,1.2,0.7,1.7,0.7c0.5,0,1-0.2,1.3-0.6c0.2-0.3,0.4-0.7,0.3-1
			c0-0.3-0.1-0.7-0.3-1c-0.2-0.3-0.4-0.7-0.8-1.2c-0.4-0.6-0.7-1-0.9-1.4c-0.2-0.4-0.3-0.8-0.3-1.3c0-0.5,0.2-0.9,0.5-1.4
			c0.3-0.4,0.7-0.7,1.1-0.8c0.4-0.1,0.9-0.1,1.5,0c0.5,0.1,1.1,0.4,1.6,0.8c0.4,0.3,0.8,0.7,1.1,1.1s0.6,0.9,0.8,1.4l-0.8,0.4
			C89.3,240,89.1,239.6,88.8,239.2z"/>
		<path d="M90.3,250.5c-0.6,0-1.2-0.2-1.6-0.5c-0.4-0.3-0.7-0.7-0.8-1.2s0.1-1,0.5-1.5l2.6-3.5l-0.8-0.6l0.4-0.6l0.9,0.6l1.1-1.5
			l0.8,0.6l-1.1,1.5l1.9,1.4l-0.4,0.6l-1.9-1.4l-2.5,3.4c-0.5,0.7-0.5,1.3,0,1.7c0.3,0.2,0.7,0.4,1.2,0.4L90.3,250.5z"/>
		<path d="M109.8,253.4l0.8,0.6l-8.5,5.9l-0.8-0.6l2.9-8.5l-7.3,5.2l-0.8-0.6l3.2-9.8l0.8,0.6l-3,8.7l7.5-5.4l0.8,0.6l-3,8.7
			L109.8,253.4z"/>
	</g>
	<g clip-path="url(#SVGID_2_)">
		<path d="M231.8,163.7l3.3,0l0,9.8l-1,0l0-8.9l-2.4,0L231.8,163.7z"/>
		<path d="M244.3,172.6l0,0.9l-6.9,0l0-0.8l3.9-4c0.4-0.5,0.8-0.9,1.1-1.4c0.3-0.4,0.4-0.8,0.4-1.2c0-0.5-0.2-0.9-0.6-1.2
			c-0.4-0.3-0.9-0.4-1.6-0.4c-0.5,0-0.9,0.1-1.4,0.3c-0.5,0.2-0.9,0.5-1.3,0.9l-0.4-0.7c0.5-0.4,1-0.7,1.6-1
			c0.6-0.2,1.2-0.4,1.7-0.4c0.9,0,1.7,0.2,2.2,0.6c0.6,0.4,0.8,1,0.8,1.7c0,0.4-0.2,0.9-0.5,1.5s-0.8,1.1-1.3,1.7l-3.3,3.4
			L244.3,172.6z"/>
		<path d="M249.9,172.9c-0.5,0.3-1,0.5-1.6,0.5c-0.6,0-1-0.2-1.3-0.5c-0.3-0.3-0.5-0.9-0.5-1.6l0-4.4l-1,0l0-0.7l1.1,0l0-1.9l0.9,0
			l0,1.9l2.4,0l0,0.7l-2.4,0l0,4.2c0,0.9,0.3,1.4,1,1.4c0.4,0,0.8-0.1,1.2-0.4L249.9,172.9z"/>
		<path d="M257.6,166.8c0.5,0.5,0.8,1.2,0.8,2.1l0,4.5l-1,0l0-4.3c0-0.7-0.2-1.2-0.6-1.6c-0.4-0.4-0.9-0.6-1.6-0.6
			c-0.8,0-1.4,0.3-1.9,0.8c-0.5,0.5-0.7,1.2-0.7,2.1l0,3.6l-0.9,0l0-10.4l0.9,0l0,4.8c0.5-1.2,1.5-1.7,2.9-1.8
			C256.4,166.1,257.1,166.3,257.6,166.8z"/>
		<path d="M268.9,164.6c-0.5-0.1-0.9-0.2-1.3-0.2c-0.7,0-1.2,0.1-1.6,0.4c-0.4,0.3-0.6,0.6-0.6,1.1c0,0.4,0.1,0.7,0.3,1
			s0.5,0.4,0.8,0.6c0.3,0.1,0.8,0.3,1.3,0.5c0.7,0.2,1.2,0.4,1.6,0.6s0.8,0.5,1,0.8c0.3,0.4,0.4,0.8,0.4,1.4c0,0.5-0.1,1-0.4,1.4
			c-0.3,0.4-0.7,0.7-1.2,0.9s-1.1,0.3-1.8,0.3c-0.7,0-1.3-0.1-2-0.4s-1.2-0.6-1.7-1.1l0.4-0.8c0.4,0.4,0.9,0.8,1.5,1
			s1.1,0.4,1.7,0.4c0.7,0,1.3-0.2,1.8-0.5c0.4-0.3,0.7-0.7,0.7-1.2c0-0.4-0.1-0.7-0.3-1c-0.2-0.3-0.5-0.5-0.8-0.6
			c-0.3-0.1-0.8-0.3-1.4-0.5c-0.7-0.2-1.2-0.4-1.6-0.6c-0.4-0.2-0.7-0.5-1-0.8c-0.3-0.4-0.4-0.8-0.4-1.4c0-0.5,0.1-0.9,0.4-1.3
			c0.3-0.4,0.7-0.7,1.2-0.9s1.1-0.3,1.8-0.3c0.5,0,1.1,0.1,1.6,0.2c0.5,0.2,1,0.4,1.4,0.6l-0.4,0.8
			C269.9,165,269.4,164.8,268.9,164.6z"/>
		<path d="M276.9,172.9c-0.5,0.3-1,0.5-1.6,0.5c-0.6,0-1-0.2-1.3-0.5s-0.5-0.9-0.5-1.6l0-4.4l-1,0l0-0.7l1.1,0l0-1.9l0.9,0l0,1.9
			l2.4,0l0,0.7l-2.4,0l0,4.2c0,0.9,0.3,1.4,1,1.4c0.4,0,0.8-0.1,1.2-0.4L276.9,172.9z"/>
		<path d="M282.6,163.6l6.6,0l0,0.9l-5.6,0l0,3.5l5,0l0,0.9l-5,0l0,3.7l5.8,0l0,0.9l-6.7,0L282.6,163.6z"/>
	</g>
	<g clip-path="url(#SVGID_2_)">
		<path d="M189.9,280.7h3.3v9.8h-1v-8.9h-2.4V280.7z"/>
		<path d="M195,280.7h3.3v9.8h-1v-8.9H195V280.7z"/>
		<path d="M205.1,290c-0.5,0.3-1,0.5-1.6,0.5c-0.6,0-1-0.2-1.3-0.5c-0.3-0.3-0.5-0.9-0.5-1.6v-4.4h-1l0-0.7h1.1v-1.9h0.9v1.9l2.4,0
			v0.7h-2.4v4.2c0,0.9,0.3,1.4,1,1.4c0.4,0,0.8-0.1,1.2-0.4L205.1,290z"/>
		<path d="M212.7,283.9c0.5,0.5,0.7,1.2,0.7,2.1v4.5h-1v-4.3c0-0.7-0.2-1.2-0.6-1.6c-0.4-0.4-0.9-0.6-1.6-0.6
			c-0.8,0-1.4,0.3-1.9,0.8c-0.5,0.5-0.7,1.2-0.7,2.1v3.6h-0.9v-10.4h0.9v4.8c0.5-1.2,1.5-1.7,2.9-1.8
			C211.6,283.1,212.2,283.4,212.7,283.9z"/>
		<path d="M224.1,281.7c-0.5-0.1-0.9-0.2-1.3-0.2c-0.7,0-1.2,0.1-1.6,0.4c-0.4,0.3-0.6,0.6-0.6,1.1c0,0.4,0.1,0.7,0.3,1
			s0.5,0.5,0.8,0.6c0.3,0.1,0.8,0.3,1.3,0.5c0.7,0.2,1.2,0.4,1.6,0.6c0.4,0.2,0.8,0.5,1,0.8c0.3,0.4,0.4,0.8,0.4,1.4
			c0,0.5-0.1,1-0.4,1.4c-0.3,0.4-0.7,0.7-1.2,0.9s-1.1,0.3-1.8,0.3c-0.7,0-1.3-0.1-2-0.4s-1.2-0.6-1.7-1.1l0.4-0.8
			c0.4,0.4,0.9,0.8,1.5,1c0.6,0.2,1.1,0.4,1.7,0.4c0.7,0,1.3-0.2,1.8-0.5s0.7-0.7,0.7-1.2c0-0.4-0.1-0.7-0.3-1
			c-0.2-0.3-0.5-0.5-0.8-0.6s-0.8-0.3-1.4-0.5c-0.7-0.2-1.2-0.4-1.6-0.6s-0.7-0.5-1-0.8c-0.3-0.4-0.4-0.8-0.4-1.4
			c0-0.5,0.1-0.9,0.4-1.3c0.3-0.4,0.7-0.7,1.2-0.9c0.5-0.2,1.1-0.3,1.8-0.3c0.5,0,1.1,0.1,1.6,0.2c0.5,0.2,1,0.4,1.4,0.6l-0.4,0.8
			C225,282.1,224.6,281.9,224.1,281.7z"/>
		<path d="M232.1,290c-0.5,0.3-1,0.5-1.6,0.5c-0.6,0-1-0.2-1.3-0.5c-0.3-0.3-0.5-0.9-0.5-1.6v-4.4h-1l0-0.7h1.1v-1.9h0.9v1.9l2.4,0
			v0.7h-2.4v4.2c0,0.9,0.3,1.4,1,1.4c0.4,0,0.8-0.1,1.2-0.4L232.1,290z"/>
		<path d="M237.8,280.7h6.6v0.9h-5.6v3.5h5v0.9h-5v3.7h5.8v0.9h-6.7V280.7z"/>
	</g>
	<g clip-path="url(#SVGID_2_)">
		<path d="M251.6,55.7h3.3v9.8h-1v-8.9h-2.4V55.7z"/>
		<path d="M263,60.6c0.6,0.5,0.9,1.1,0.9,1.9c0,0.6-0.2,1.1-0.5,1.6c-0.3,0.5-0.7,0.8-1.3,1.1c-0.6,0.3-1.2,0.4-2,0.4
			c-0.6,0-1.2-0.1-1.8-0.3c-0.6-0.2-1.1-0.4-1.6-0.7l0.4-0.8c0.4,0.3,0.8,0.5,1.3,0.6c0.5,0.2,1,0.2,1.5,0.2c0.9,0,1.6-0.2,2.1-0.6
			c0.5-0.4,0.8-0.9,0.8-1.6s-0.3-1.2-0.8-1.5c-0.5-0.3-1.2-0.5-2.1-0.5h-1.3v-0.6l3.3-3.4h-4.9v-0.9h6.1v0.6l-3.5,3.5l0.6,0
			C261.6,59.9,262.4,60.2,263,60.6z"/>
		<path d="M269.8,65c-0.5,0.3-1,0.5-1.6,0.5c-0.6,0-1-0.2-1.3-0.5c-0.3-0.3-0.5-0.9-0.5-1.6v-4.4h-1.1l0-0.7h1.1v-1.9h0.9v1.9l2.4,0
			v0.7h-2.4v4.2c0,0.9,0.3,1.4,1,1.4c0.4,0,0.8-0.1,1.2-0.4L269.8,65z"/>
		<path d="M277.4,58.9c0.5,0.5,0.7,1.2,0.7,2.1v4.5h-1v-4.3c0-0.7-0.2-1.2-0.6-1.6c-0.4-0.4-0.9-0.6-1.6-0.6c-0.8,0-1.4,0.3-1.9,0.8
			c-0.5,0.5-0.7,1.2-0.7,2.1v3.6h-0.9V55.1h0.9v4.8c0.5-1.2,1.5-1.7,2.9-1.8C276.2,58.1,276.9,58.4,277.4,58.9z"/>
		<path d="M288.8,56.7c-0.5-0.1-0.9-0.2-1.3-0.2c-0.7,0-1.2,0.1-1.6,0.4c-0.4,0.3-0.6,0.6-0.6,1.1c0,0.4,0.1,0.7,0.3,1
			c0.2,0.3,0.5,0.5,0.8,0.6c0.3,0.1,0.8,0.3,1.3,0.5c0.7,0.2,1.2,0.4,1.6,0.6c0.4,0.2,0.8,0.5,1,0.8c0.3,0.4,0.4,0.8,0.4,1.4
			c0,0.5-0.1,1-0.4,1.4c-0.3,0.4-0.7,0.7-1.2,0.9s-1.1,0.3-1.8,0.3c-0.7,0-1.3-0.1-2-0.4s-1.2-0.6-1.7-1.1l0.4-0.8
			c0.4,0.4,0.9,0.8,1.5,1c0.6,0.2,1.1,0.4,1.7,0.4c0.7,0,1.3-0.2,1.8-0.5c0.4-0.3,0.7-0.7,0.7-1.2c0-0.4-0.1-0.7-0.3-1
			c-0.2-0.3-0.5-0.5-0.8-0.6c-0.3-0.1-0.8-0.3-1.4-0.5c-0.7-0.2-1.2-0.4-1.6-0.6c-0.4-0.2-0.7-0.5-1-0.8c-0.3-0.4-0.4-0.8-0.4-1.4
			c0-0.5,0.1-0.9,0.4-1.3c0.3-0.4,0.7-0.7,1.2-0.9s1.1-0.3,1.8-0.3c0.5,0,1.1,0.1,1.6,0.2s1,0.4,1.4,0.6l-0.4,0.8
			C289.7,57.1,289.3,56.9,288.8,56.7z"/>
		<path d="M296.7,65c-0.5,0.3-1,0.5-1.6,0.5c-0.6,0-1-0.2-1.3-0.5c-0.3-0.3-0.5-0.9-0.5-1.6v-4.4h-1l0-0.7h1.1v-1.9h0.9v1.9l2.4,0
			v0.7h-2.4v4.2c0,0.9,0.3,1.4,1,1.4c0.4,0,0.8-0.1,1.2-0.4L296.7,65z"/>
		<path d="M302.5,55.7h6.6v0.9h-5.6v3.5h5V61h-5v3.7h5.8v0.9h-6.7V55.7z"/>
	</g>
	<g clip-path="url(#SVGID_2_)">
		<path d="M173.3,115.5v1h-8.9v4.3h-0.9v-5.3H173.3z"/>
		<path d="M170.4,127.4c-0.3,0.6-0.7,1-1.3,1.3c-0.6,0.3-1.2,0.5-1.9,0.5c-0.7,0-1.4-0.2-1.9-0.5c-0.6-0.3-1-0.8-1.3-1.3
			s-0.5-1.2-0.5-1.9c0-0.7,0.2-1.3,0.5-1.9c0.3-0.6,0.8-1,1.3-1.3c0.6-0.3,1.2-0.5,1.9-0.5c0.7,0,1.3,0.2,1.9,0.5s1,0.8,1.3,1.3
			c0.3,0.6,0.5,1.2,0.5,1.9C170.9,126.2,170.7,126.8,170.4,127.4z M169.7,124.1c-0.2-0.4-0.6-0.7-1-1c-0.4-0.2-0.9-0.3-1.5-0.3
			c-0.6,0-1.1,0.1-1.5,0.3c-0.4,0.2-0.8,0.6-1,1c-0.2,0.4-0.4,0.9-0.4,1.4s0.1,1,0.4,1.4c0.2,0.4,0.6,0.7,1,1
			c0.4,0.2,0.9,0.3,1.5,0.3c0.6,0,1.1-0.1,1.5-0.3c0.4-0.2,0.8-0.6,1-1c0.2-0.4,0.4-0.9,0.4-1.4S169.9,124.5,169.7,124.1z"/>
		<path d="M170.1,137.1c-0.5,0.5-1.2,0.7-2.1,0.7h-4.5v-1h4.3c0.7,0,1.2-0.2,1.6-0.6c0.4-0.4,0.6-0.9,0.6-1.6c0-0.8-0.2-1.4-0.7-1.8
			s-1.1-0.7-1.8-0.8h-3.9v-0.9h7.3v0.9h-1.7c0.6,0.3,1,0.6,1.3,1.1c0.3,0.5,0.4,1.1,0.4,1.8C170.9,135.9,170.6,136.6,170.1,137.1z"
			/>
		<path d="M169.9,143.2c0.1-0.3,0.1-0.7,0.1-1c0-0.5-0.1-0.8-0.3-1.1c-0.2-0.3-0.5-0.4-0.8-0.4c-0.3,0-0.5,0.1-0.6,0.2
			c-0.2,0.2-0.3,0.3-0.4,0.6c-0.1,0.2-0.2,0.5-0.3,1c-0.1,0.5-0.3,0.9-0.4,1.2s-0.4,0.6-0.6,0.8c-0.3,0.2-0.6,0.3-1.1,0.3
			c-0.7,0-1.2-0.3-1.5-0.8s-0.5-1.1-0.5-1.9c0-0.5,0.1-1,0.3-1.5s0.4-0.9,0.8-1.2l0.7,0.4c-0.3,0.3-0.5,0.7-0.7,1.1
			s-0.3,0.9-0.3,1.3c0,0.5,0.1,0.9,0.3,1.2c0.2,0.3,0.5,0.5,0.9,0.5c0.3,0,0.5-0.1,0.7-0.2c0.2-0.2,0.3-0.4,0.4-0.6
			c0.1-0.2,0.2-0.6,0.3-1c0.1-0.5,0.3-0.9,0.4-1.2c0.1-0.3,0.3-0.6,0.6-0.8c0.3-0.2,0.6-0.3,1-0.3c0.6,0,1.1,0.2,1.5,0.7
			c0.3,0.5,0.5,1.1,0.5,1.8c0,0.4-0.1,0.8-0.2,1.2s-0.3,0.7-0.5,1l-0.7-0.4C169.7,143.8,169.8,143.5,169.9,143.2z"/>
		<path d="M173.9,153.3h-10.4v-0.9h1.7c-0.6-0.3-1-0.7-1.3-1.2s-0.5-1.1-0.5-1.8c0-0.7,0.2-1.3,0.5-1.8c0.3-0.5,0.8-1,1.3-1.3
			s1.2-0.4,1.9-0.4c0.7,0,1.4,0.2,1.9,0.5s1,0.7,1.3,1.3c0.3,0.5,0.5,1.1,0.5,1.8c0,0.7-0.2,1.3-0.5,1.8c-0.3,0.5-0.7,0.9-1.3,1.2
			h4.7V153.3z M164.6,151c0.2,0.4,0.6,0.7,1,1c0.4,0.2,0.9,0.4,1.5,0.4c0.6,0,1.1-0.1,1.5-0.4c0.4-0.2,0.8-0.6,1-1s0.4-0.9,0.4-1.4
			c0-0.5-0.1-1-0.4-1.4s-0.6-0.8-1-1c-0.4-0.2-0.9-0.4-1.5-0.4c-0.6,0-1.1,0.1-1.5,0.4c-0.4,0.2-0.8,0.6-1,1
			c-0.2,0.4-0.4,0.9-0.4,1.4C164.3,150.1,164.4,150.6,164.6,151z"/>
		<path d="M163.5,160.7l1.2,0c-0.4-0.3-0.7-0.7-1-1.1c-0.2-0.5-0.3-1-0.3-1.6c0-0.5,0.1-0.9,0.3-1.3c0.2-0.4,0.5-0.7,0.8-0.9
			s0.7-0.3,1.1-0.3c0.6,0,1.1,0.2,1.5,0.7c0.4,0.5,0.5,1.2,0.5,2v2.5h0.6c0.6,0,1-0.2,1.3-0.5c0.3-0.3,0.5-0.8,0.5-1.5
			c0-0.8-0.3-1.6-0.9-2.4l0.6-0.4c0.3,0.5,0.6,1,0.8,1.4c0.2,0.4,0.2,1,0.2,1.5c0,0.9-0.2,1.6-0.7,2.1c-0.4,0.5-1.1,0.7-1.8,0.7
			l-4.9,0V160.7z M164.7,159.8c0.3,0.5,0.7,0.8,1.3,0.9h1v-2.4c0-0.6-0.1-1.1-0.3-1.5c-0.2-0.3-0.5-0.5-1-0.5
			c-0.4,0-0.8,0.2-1.1,0.5c-0.3,0.3-0.4,0.8-0.4,1.3C164.2,158.8,164.4,159.3,164.7,159.8z"/>
		<path d="M173.9,164.2v0.9h-10.4v-0.9H173.9z"/>
		<path d="M169.8,173.4c-0.7,0.6-1.7,0.9-2.9,0.8v-6.1c-0.8,0.1-1.4,0.4-1.9,0.9c-0.5,0.5-0.7,1.1-0.7,1.9c0,0.5,0.1,0.9,0.3,1.3
			s0.4,0.7,0.7,1l-0.5,0.5c-0.4-0.4-0.7-0.8-0.9-1.3s-0.3-1-0.3-1.6c0-0.7,0.2-1.3,0.5-1.9s0.7-1,1.3-1.3s1.2-0.5,1.9-0.5
			c0.7,0,1.3,0.2,1.9,0.5c0.6,0.3,1,0.7,1.3,1.3c0.3,0.6,0.5,1.2,0.5,1.9C170.9,172,170.5,172.8,169.8,173.4z M167.6,173.4
			c0.8,0,1.4-0.3,1.8-0.8c0.5-0.5,0.7-1.1,0.7-1.8c0-0.7-0.2-1.4-0.7-1.8c-0.5-0.5-1.1-0.8-1.8-0.9V173.4z"/>
		<path d="M163.5,187.5l2.6-1.2v-5.4l-2.6-1.1v-1l9.8,4.4v1l-9.8,4.4V187.5z M167,181.3v4.7l5.3-2.4L167,181.3z"/>
		<path d="M170.8,188.5v1l-6.4,2.4l6.4,2.4v1l-7.3-2.9v-1L170.8,188.5z"/>
		<path d="M169.8,201.9c-0.7,0.6-1.7,0.9-2.9,0.8v-6.1c-0.8,0.1-1.4,0.4-1.9,0.9s-0.7,1.1-0.7,1.9c0,0.5,0.1,0.9,0.3,1.3
			c0.2,0.4,0.4,0.7,0.7,1l-0.5,0.5c-0.4-0.4-0.7-0.8-0.9-1.3c-0.2-0.5-0.3-1-0.3-1.6c0-0.7,0.2-1.3,0.5-1.9c0.3-0.6,0.7-1,1.3-1.3
			c0.6-0.3,1.2-0.5,1.9-0.5c0.7,0,1.3,0.2,1.9,0.5c0.6,0.3,1,0.7,1.3,1.3c0.3,0.5,0.5,1.2,0.5,1.9
			C170.9,200.4,170.5,201.3,169.8,201.9z M167.6,201.9c0.8,0,1.4-0.3,1.8-0.8c0.5-0.5,0.7-1.1,0.7-1.8c0-0.7-0.2-1.4-0.7-1.8
			c-0.5-0.5-1.1-0.8-1.8-0.9V201.9z"/>
	</g>
	<g clip-path="url(#SVGID_2_)">
		<path d="M393.3,86.2c0.1-0.5,0.2-0.9,0.2-1.3c0-0.7-0.1-1.2-0.4-1.6c-0.3-0.4-0.6-0.6-1.1-0.6c-0.4,0-0.7,0.1-1,0.3
			c-0.3,0.2-0.5,0.5-0.6,0.8c-0.1,0.3-0.3,0.8-0.5,1.3c-0.2,0.7-0.4,1.2-0.6,1.6c-0.2,0.4-0.5,0.8-0.8,1c-0.4,0.3-0.8,0.4-1.4,0.4
			c-0.5,0-1-0.1-1.4-0.4c-0.4-0.3-0.7-0.7-0.9-1.2c-0.2-0.5-0.3-1.1-0.3-1.8c0-0.7,0.1-1.3,0.4-2c0.3-0.6,0.6-1.2,1.1-1.7l0.8,0.4
			c-0.4,0.4-0.8,0.9-1,1.5c-0.2,0.6-0.4,1.1-0.4,1.7c0,0.7,0.2,1.3,0.5,1.8c0.3,0.4,0.7,0.7,1.2,0.7c0.4,0,0.7-0.1,1-0.3
			c0.3-0.2,0.5-0.5,0.6-0.8c0.1-0.3,0.3-0.8,0.5-1.4c0.2-0.7,0.4-1.2,0.6-1.6s0.5-0.7,0.8-1c0.4-0.3,0.8-0.4,1.4-0.4
			c0.5,0,0.9,0.1,1.3,0.4c0.4,0.3,0.7,0.7,0.9,1.2c0.2,0.5,0.3,1.1,0.3,1.8c0,0.5-0.1,1.1-0.2,1.6c-0.2,0.5-0.4,1-0.6,1.4l-0.8-0.4
			C392.9,87.1,393.1,86.6,393.3,86.2z"/>
		<path d="M385,94.1c-0.3-0.5-0.5-1-0.5-1.6c0-0.6,0.2-1,0.5-1.3c0.3-0.3,0.9-0.5,1.6-0.5h4.4v-1l0.7,0v1.1h1.9v0.9h-1.9l0,2.4h-0.7
			v-2.4h-4.2c-0.9,0-1.4,0.3-1.4,1c0,0.4,0.1,0.8,0.4,1.2L385,94.1z"/>
		<path d="M385.5,96.2c-0.1,0.1-0.3,0.2-0.4,0.2c-0.2,0-0.3-0.1-0.5-0.2c-0.1-0.1-0.2-0.3-0.2-0.4s0.1-0.3,0.2-0.4s0.3-0.2,0.5-0.2
			c0.2,0,0.3,0.1,0.4,0.2c0.1,0.1,0.2,0.3,0.2,0.4S385.6,96.1,385.5,96.2z"/>
		<path d="M389.3,109.4v0.9h-3.6c-0.4-0.5-0.7-1-0.9-1.7c-0.2-0.6-0.3-1.3-0.3-1.9c0-0.9,0.2-1.8,0.7-2.6c0.4-0.8,1.1-1.4,1.8-1.9
			c0.8-0.5,1.6-0.7,2.5-0.7s1.7,0.2,2.5,0.7c0.8,0.5,1.4,1.1,1.8,1.9c0.4,0.8,0.7,1.6,0.7,2.6c0,0.7-0.1,1.3-0.4,1.9
			c-0.2,0.6-0.6,1.2-1,1.6l-0.7-0.6c0.4-0.4,0.7-0.9,0.9-1.4c0.2-0.5,0.3-1.1,0.3-1.6c0-0.8-0.2-1.5-0.6-2.1
			c-0.4-0.6-0.9-1.1-1.5-1.5c-0.6-0.4-1.3-0.6-2.1-0.6c-0.8,0-1.4,0.2-2.1,0.6c-0.6,0.4-1.1,0.9-1.5,1.5s-0.6,1.3-0.6,2.1
			c0,0.5,0.1,0.9,0.2,1.4c0.2,0.5,0.4,0.9,0.7,1.3H389.3z"/>
		<path d="M390.8,118.4c-0.7,0.6-1.7,0.9-2.9,0.8v-6.1c-0.8,0.1-1.4,0.4-1.9,0.9c-0.5,0.5-0.7,1.1-0.7,1.9c0,0.5,0.1,0.9,0.3,1.3
			s0.4,0.7,0.7,1l-0.5,0.5c-0.4-0.4-0.7-0.8-0.9-1.3s-0.3-1-0.3-1.6c0-0.7,0.2-1.3,0.5-1.9c0.3-0.6,0.7-1,1.3-1.3
			c0.6-0.3,1.2-0.5,1.9-0.5c0.7,0,1.3,0.2,1.9,0.5c0.6,0.3,1,0.7,1.3,1.3c0.3,0.6,0.5,1.2,0.5,1.9
			C391.9,116.9,391.5,117.8,390.8,118.4z M388.6,118.4c0.8,0,1.4-0.3,1.8-0.8c0.5-0.5,0.7-1.1,0.7-1.8c0-0.7-0.2-1.4-0.7-1.8
			s-1.1-0.8-1.8-0.9V118.4z"/>
		<path d="M391.4,126c-0.3,0.6-0.7,1-1.3,1.3c-0.6,0.3-1.2,0.5-1.9,0.5c-0.7,0-1.4-0.2-1.9-0.5c-0.6-0.3-1-0.8-1.3-1.3
			s-0.5-1.2-0.5-1.9c0-0.7,0.2-1.3,0.5-1.9c0.3-0.6,0.8-1,1.3-1.3c0.6-0.3,1.2-0.5,1.9-0.5c0.7,0,1.3,0.2,1.9,0.5s1,0.8,1.3,1.3
			c0.3,0.6,0.5,1.2,0.5,1.9C391.9,124.8,391.7,125.4,391.4,126z M390.7,122.7c-0.2-0.4-0.6-0.7-1-1c-0.4-0.2-0.9-0.3-1.5-0.3
			c-0.6,0-1.1,0.1-1.5,0.3c-0.4,0.2-0.8,0.6-1,1c-0.2,0.4-0.4,0.9-0.4,1.4s0.1,1,0.4,1.4c0.2,0.4,0.6,0.7,1,1
			c0.4,0.2,0.9,0.3,1.5,0.3c0.6,0,1.1-0.1,1.5-0.3c0.4-0.2,0.8-0.6,1-1c0.2-0.4,0.4-0.9,0.4-1.4S390.9,123.1,390.7,122.7z"/>
		<path d="M391.4,131.8c0.3,0.5,0.4,1,0.5,1.6H391c0-0.8-0.2-1.4-0.7-1.9c-0.5-0.5-1.1-0.7-1.9-0.8h-3.9v-0.9h7.3v0.9h-1.7
			C390.7,131,391.1,131.3,391.4,131.8z"/>
		<path d="M391.8,141.2h-6.6c-0.7,0-1.3-0.1-1.9-0.4c-0.5-0.3-0.9-0.7-1.2-1.3c-0.3-0.6-0.4-1.2-0.4-1.9c0-1.1,0.4-2.1,1.1-3
			l0.7,0.4c-0.3,0.4-0.6,0.8-0.7,1.2s-0.3,0.9-0.3,1.3c0,0.8,0.2,1.5,0.7,2c0.5,0.5,1.1,0.7,2,0.7h1.2c-0.5-0.3-0.9-0.6-1.2-1.1
			s-0.4-1-0.4-1.7c0-0.7,0.2-1.2,0.5-1.7c0.3-0.5,0.7-0.9,1.3-1.2c0.5-0.3,1.1-0.4,1.8-0.4s1.3,0.1,1.8,0.4c0.5,0.3,0.9,0.7,1.2,1.2
			c0.3,0.5,0.4,1.1,0.4,1.8c0,0.6-0.1,1.2-0.4,1.7c-0.3,0.5-0.7,0.8-1.2,1.1h1.6V141.2z M385.9,139c0.2,0.4,0.6,0.7,1,0.9
			s0.9,0.3,1.4,0.3c0.5,0,1-0.1,1.4-0.3s0.7-0.5,1-0.9c0.2-0.4,0.4-0.9,0.4-1.4s-0.1-1-0.4-1.4c-0.2-0.4-0.6-0.7-1-0.9
			c-0.4-0.2-0.9-0.3-1.4-0.3c-0.5,0-1,0.1-1.4,0.3c-0.4,0.2-0.7,0.5-1,0.9c-0.2,0.4-0.4,0.9-0.4,1.4
			C385.6,138.2,385.7,138.6,385.9,139z"/>
		<path d="M390.8,149.3c-0.7,0.6-1.7,0.9-2.9,0.8V144c-0.8,0.1-1.4,0.4-1.9,0.9c-0.5,0.5-0.7,1.1-0.7,1.9c0,0.5,0.1,0.9,0.3,1.3
			s0.4,0.7,0.7,1l-0.5,0.5c-0.4-0.4-0.7-0.8-0.9-1.3s-0.3-1-0.3-1.6c0-0.7,0.2-1.3,0.5-1.9c0.3-0.6,0.7-1,1.3-1.3
			c0.6-0.3,1.2-0.5,1.9-0.5c0.7,0,1.3,0.2,1.9,0.5c0.6,0.3,1,0.7,1.3,1.3c0.3,0.6,0.5,1.2,0.5,1.9
			C391.9,147.8,391.5,148.7,390.8,149.3z M388.6,149.2c0.8,0,1.4-0.3,1.8-0.8c0.5-0.5,0.7-1.1,0.7-1.8c0-0.7-0.2-1.4-0.7-1.8
			s-1.1-0.8-1.8-0.9V149.2z"/>
		<path d="M390.9,154.9c0.1-0.3,0.1-0.7,0.1-1c0-0.5-0.1-0.8-0.3-1.1c-0.2-0.3-0.5-0.4-0.8-0.4c-0.3,0-0.5,0.1-0.6,0.2
			c-0.2,0.2-0.3,0.3-0.4,0.6c-0.1,0.2-0.2,0.5-0.3,1c-0.1,0.5-0.3,0.9-0.4,1.2c-0.1,0.3-0.4,0.6-0.6,0.8c-0.3,0.2-0.6,0.3-1.1,0.3
			c-0.7,0-1.2-0.3-1.5-0.8s-0.5-1.1-0.5-1.9c0-0.5,0.1-1,0.3-1.5c0.2-0.5,0.4-0.9,0.8-1.2l0.7,0.4c-0.3,0.3-0.5,0.7-0.7,1.1
			s-0.3,0.9-0.3,1.3c0,0.5,0.1,0.9,0.3,1.2c0.2,0.3,0.5,0.5,0.9,0.5c0.3,0,0.5-0.1,0.7-0.2c0.2-0.2,0.3-0.4,0.4-0.6
			c0.1-0.2,0.2-0.6,0.3-1c0.1-0.5,0.3-0.9,0.4-1.2c0.1-0.3,0.3-0.6,0.6-0.8s0.6-0.3,1-0.3c0.6,0,1.1,0.2,1.5,0.7
			c0.3,0.5,0.5,1.1,0.5,1.8c0,0.4-0.1,0.8-0.2,1.2c-0.1,0.4-0.3,0.7-0.5,1.1l-0.7-0.4C390.7,155.6,390.8,155.2,390.9,154.9z"/>
		<path d="M384.5,169.7l2.6-1.2v-5.4l-2.6-1.1v-1l9.8,4.4v1l-9.8,4.4V169.7z M388,163.4v4.7l5.3-2.4L388,163.4z"/>
		<path d="M391.8,170.6v1l-6.4,2.4l6.4,2.4v1l-7.3-2.9v-1L391.8,170.6z"/>
		<path d="M390.8,184c-0.7,0.6-1.7,0.9-2.9,0.8v-6.1c-0.8,0.1-1.4,0.4-1.9,0.9s-0.7,1.1-0.7,1.9c0,0.5,0.1,0.9,0.3,1.3
			s0.4,0.7,0.7,1l-0.5,0.5c-0.4-0.4-0.7-0.8-0.9-1.3s-0.3-1-0.3-1.6c0-0.7,0.2-1.3,0.5-1.9c0.3-0.6,0.7-1,1.3-1.3
			c0.6-0.3,1.2-0.5,1.9-0.5c0.7,0,1.3,0.2,1.9,0.5c0.6,0.3,1,0.7,1.3,1.3c0.3,0.5,0.5,1.2,0.5,1.9
			C391.9,182.5,391.5,183.4,390.8,184z M388.6,184c0.8,0,1.4-0.3,1.8-0.8s0.7-1.1,0.7-1.8c0-0.7-0.2-1.4-0.7-1.8s-1.1-0.8-1.8-0.9
			V184z"/>
	</g>
	<g clip-path="url(#SVGID_2_)" id="pip">
		<path d="M223.1,103.2c0,9.9-16.3,46.1-16.3,46.1s-16.3-36.2-16.3-46.1s7.3-18,16.3-18S223.1,93.2,223.1,103.2z"/>
		<ellipse fill="#FFFFFF" cx="207.1" cy="102.5" rx="5.9" ry="5.7"/>
	</g>
	<g clip-path="url(#SVGID_2_)">
		<path fill="#FFFFFF" d="M218.8,145.8c0.1,0.2,0.3,0.3,0.5,0.4c0.2,0.1,0.5,0.1,0.9,0.1v0.3c-1.2,0-1.9-0.1-2.2-0.1
			c-0.3,0-1.1,0-2.5,0.1v-0.3c0.6,0,1-0.1,1.3-0.3c0.3-0.2,0.4-0.5,0.4-1v-3.9c0-0.5-0.1-0.9-0.2-1.1c-0.1-0.2-0.3-0.4-0.5-0.5
			c-0.3-0.1-0.6-0.1-1.2-0.1V139c0.8,0,1.4-0.1,1.9-0.2c0.5-0.1,1-0.3,1.4-0.6v6.8C218.7,145.3,218.7,145.6,218.8,145.8z"/>
		<path fill="#FFFFFF" d="M222.5,138.7c0.5-0.4,1.2-0.6,2-0.6c0.7,0,1.3,0.2,1.8,0.5c0.4,0.4,0.6,0.8,0.6,1.5c0,0.6-0.2,1.2-0.6,1.7
			c-0.4,0.5-1,1.2-1.8,1.9c-0.8,0.7-1.3,1.2-1.6,1.6h3.3c0.3,0,0.5,0,0.6-0.1c0.1,0,0.2-0.1,0.3-0.2c0.1-0.1,0.1-0.3,0.1-0.5h0.3
			c0,1,0,1.7,0.1,2.1c-0.2-0.1-1-0.1-2.4-0.1h-3.8v-0.3c0.2-0.2,0.7-0.7,1.4-1.4c0.8-0.7,1.4-1.4,1.8-2.2c0.4-0.7,0.7-1.5,0.7-2.3
			c0-1.2-0.5-1.7-1.6-1.7c-0.9,0-1.6,0.5-2.1,1.5l-0.3-0.1C221.6,139.6,222,139.1,222.5,138.7z"/>
		<path fill="#FFFFFF" d="M235.1,138.7c0.6,0.3,1,0.8,1.4,1.5c0.3,0.6,0.5,1.4,0.5,2.2c0,0.8-0.2,1.6-0.5,2.3
			c-0.3,0.7-0.8,1.2-1.4,1.6c-0.6,0.4-1.3,0.6-2.1,0.6c-0.7,0-1.4-0.2-2-0.5c-0.6-0.3-1-0.8-1.4-1.5c-0.3-0.6-0.5-1.4-0.5-2.2
			s0.2-1.6,0.5-2.3c0.3-0.7,0.8-1.2,1.4-1.6c0.6-0.4,1.3-0.6,2.1-0.6C233.8,138.2,234.5,138.3,235.1,138.7z M231.7,138.9
			c-0.4,0.3-0.6,0.8-0.8,1.4c-0.2,0.6-0.3,1.4-0.3,2.2c0,0.9,0.1,1.7,0.3,2.3c0.2,0.6,0.5,1,0.9,1.3c0.4,0.3,0.8,0.4,1.3,0.4
			c0.5,0,0.9-0.2,1.2-0.5c0.4-0.3,0.6-0.8,0.8-1.4c0.2-0.6,0.3-1.4,0.3-2.2c0-0.9-0.1-1.7-0.3-2.3s-0.5-1-0.9-1.3
			c-0.4-0.3-0.8-0.4-1.3-0.4C232.5,138.4,232.1,138.6,231.7,138.9z"/>
		<path fill="#FFFFFF" d="M244.7,138.7c0.6,0.3,1,0.8,1.4,1.5c0.3,0.6,0.5,1.4,0.5,2.2c0,0.8-0.2,1.6-0.5,2.3
			c-0.3,0.7-0.8,1.2-1.4,1.6c-0.6,0.4-1.3,0.6-2.1,0.6c-0.7,0-1.4-0.2-2-0.5c-0.6-0.3-1-0.8-1.4-1.5c-0.3-0.6-0.5-1.4-0.5-2.2
			s0.2-1.6,0.5-2.3c0.3-0.7,0.8-1.2,1.4-1.6c0.6-0.4,1.3-0.6,2.1-0.6C243.4,138.2,244.1,138.3,244.7,138.7z M241.3,138.9
			c-0.4,0.3-0.6,0.8-0.8,1.4c-0.2,0.6-0.3,1.4-0.3,2.2c0,0.9,0.1,1.7,0.3,2.3c0.2,0.6,0.5,1,0.9,1.3c0.4,0.3,0.8,0.4,1.3,0.4
			c0.5,0,0.9-0.2,1.2-0.5c0.4-0.3,0.6-0.8,0.8-1.4c0.2-0.6,0.3-1.4,0.3-2.2c0-0.9-0.1-1.7-0.3-2.3s-0.5-1-0.9-1.3
			c-0.4-0.3-0.8-0.4-1.3-0.4C242.1,138.4,241.7,138.6,241.3,138.9z"/>
		<path fill="#FFFFFF" d="M255.3,135.7c-0.2,0.1-0.3,0.2-0.4,0.4c-0.1,0.2-0.1,0.5-0.1,0.9v7.9c0,0.4,0,0.7,0.1,0.9
			c0.1,0.2,0.2,0.3,0.4,0.4c0.2,0.1,0.5,0.1,0.8,0.1h1.2c0.7,0,1.2-0.1,1.5-0.3c0.3-0.2,0.6-0.5,0.8-0.9c0.2-0.4,0.3-1,0.4-1.8h0.4
			c0,0.3,0,0.8,0,1.3c0,0.6,0,1.3,0.1,2c-0.7,0-1.9,0-3.7,0c-2,0-3.6,0-4.6,0v-0.3c0.4,0,0.7-0.1,0.8-0.1c0.2-0.1,0.3-0.2,0.4-0.4
			c0.1-0.2,0.1-0.5,0.1-0.9V137c0-0.4,0-0.7-0.1-0.9c-0.1-0.2-0.2-0.3-0.4-0.4c-0.2-0.1-0.5-0.1-0.8-0.1v-0.3c0.4,0,1.1,0,2,0
			c0.9,0,1.5,0,2,0v0.3C255.8,135.6,255.5,135.7,255.3,135.7z"/>
		<path fill="#FFFFFF" d="M267.1,138.6c0.5,0.3,1,0.8,1.3,1.4c0.3,0.6,0.5,1.5,0.5,2.5c0,1-0.2,1.8-0.5,2.5
			c-0.3,0.6-0.7,1.1-1.3,1.4c-0.5,0.3-1.2,0.5-1.9,0.5s-1.3-0.2-1.9-0.5c-0.5-0.3-1-0.8-1.3-1.4c-0.3-0.6-0.5-1.5-0.5-2.5
			c0-1,0.2-1.8,0.5-2.5c0.3-0.6,0.7-1.1,1.3-1.4c0.5-0.3,1.2-0.5,1.9-0.5S266.5,138.3,267.1,138.6z M263.7,139.5
			c-0.4,0.7-0.6,1.7-0.6,3c0,1.4,0.2,2.4,0.6,3c0.4,0.7,0.9,1,1.5,1s1.1-0.3,1.5-1c0.4-0.7,0.6-1.7,0.6-3c0-1.4-0.2-2.4-0.6-3
			c-0.4-0.7-0.9-1-1.5-1S264,138.8,263.7,139.5z"/>
		<path fill="#FFFFFF" d="M273.8,138.6c0.5-0.3,1-0.5,1.6-0.5c0.7,0,1.3,0.2,1.7,0.6c0.2,0.2,0.3,0.5,0.4,0.8s0.1,0.8,0.1,1.3v4.3
			c0,0.3,0,0.5,0.1,0.7c0.1,0.2,0.2,0.3,0.4,0.4c0.2,0.1,0.4,0.1,0.7,0.1v0.3c-1,0-1.6-0.1-1.9-0.1c-0.3,0-0.9,0-1.8,0.1v-0.3
			c0.3,0,0.5,0,0.6-0.1c0.1-0.1,0.3-0.2,0.3-0.4c0.1-0.2,0.1-0.4,0.1-0.7v-4.6c0-0.4,0-0.7-0.1-1c-0.1-0.3-0.2-0.5-0.4-0.6
			c-0.2-0.2-0.5-0.2-0.8-0.2c-0.4,0-0.8,0.1-1.2,0.4c-0.3,0.3-0.6,0.6-0.8,1.1s-0.3,0.9-0.3,1.5v3.6c0,0.3,0,0.5,0.1,0.7
			c0.1,0.2,0.2,0.3,0.3,0.4c0.2,0.1,0.4,0.1,0.6,0.1v0.3c-0.9,0-1.5-0.1-1.8-0.1c-0.3,0-0.9,0-1.9,0.1v-0.3c0.3,0,0.5,0,0.7-0.1
			c0.2-0.1,0.3-0.2,0.4-0.4c0.1-0.2,0.1-0.4,0.1-0.7v-5c0-0.5-0.1-0.9-0.3-1.1c-0.2-0.2-0.5-0.3-0.9-0.3v-0.3c0.3,0,0.7,0,1,0
			c0.7,0,1.2-0.1,1.7-0.2v1.9C272.9,139.4,273.3,138.9,273.8,138.6z"/>
		<path fill="#FFFFFF" d="M280.8,145.2c0.1,0.4,0.4,0.8,0.7,1c0.3,0.2,0.7,0.4,1.2,0.4c0.2,0,0.5-0.1,0.7-0.2
			c0.2-0.1,0.4-0.3,0.5-0.5s0.2-0.5,0.2-0.9c0-0.3-0.1-0.6-0.2-0.8c-0.1-0.2-0.3-0.4-0.6-0.6c-0.2-0.2-0.6-0.4-1-0.7
			c-0.5-0.3-0.9-0.6-1.2-0.8c-0.3-0.2-0.5-0.5-0.7-0.8c-0.2-0.3-0.3-0.7-0.3-1.1c0-0.5,0.1-0.8,0.3-1.1c0.2-0.3,0.5-0.5,0.9-0.7
			c0.4-0.2,0.8-0.2,1.2-0.2c0.4,0,0.7,0.1,1,0.2c0.3,0.1,0.5,0.3,0.7,0.4c0.1,0.1,0.2,0.1,0.3,0.1c0.2,0,0.3-0.2,0.4-0.7h0.4
			c0,0.5-0.1,1.4-0.1,2.7h-0.4c-0.1-0.7-0.3-1.3-0.7-1.7c-0.3-0.5-0.8-0.7-1.5-0.7c-0.4,0-0.7,0.1-0.9,0.3c-0.2,0.2-0.4,0.5-0.4,0.9
			c0,0.4,0.1,0.7,0.4,0.9c0.3,0.2,0.6,0.5,0.9,0.7c0.4,0.2,0.6,0.4,0.8,0.5c0.5,0.3,0.9,0.6,1.2,0.8c0.3,0.2,0.5,0.5,0.7,0.9
			c0.2,0.3,0.3,0.7,0.3,1.1c0,0.5-0.1,0.9-0.4,1.2c-0.2,0.3-0.6,0.6-1,0.8c-0.4,0.2-0.9,0.3-1.4,0.3c-0.5,0-0.9-0.1-1.3-0.2
			c-0.2-0.1-0.4-0.2-0.7-0.4c0,0-0.1-0.1-0.1-0.1c-0.2,0-0.3,0.2-0.3,0.6H280c0-0.6,0.1-1.7,0.1-3.2h0.4
			C280.5,144.2,280.6,144.7,280.8,145.2z"/>
		<path fill="#FFFFFF" d="M294.3,146c0.2,0.2,0.5,0.3,0.9,0.3v0.3c-0.3,0-0.7,0-1,0c-0.7,0-1.2,0.1-1.7,0.2v-1.4
			c-0.2,0.5-0.5,0.8-0.9,1.1s-0.9,0.4-1.4,0.4c-0.7,0-1.3-0.2-1.8-0.5c-0.5-0.3-0.9-0.8-1.1-1.5c-0.3-0.6-0.4-1.4-0.4-2.4
			c0-0.9,0.2-1.7,0.5-2.4s0.8-1.1,1.3-1.5c0.5-0.3,1.2-0.5,1.8-0.5c0.4,0,0.8,0.1,1.1,0.2c0.3,0.2,0.6,0.4,0.8,0.7V136
			c0-0.5-0.1-0.9-0.3-1.1c-0.2-0.2-0.5-0.3-0.9-0.3v-0.3c0.3,0,0.7,0,1,0c0.7,0,1.2-0.1,1.7-0.2v10.8
			C294,145.4,294.1,145.7,294.3,146z M290.8,138.5c-0.4,0-0.8,0.1-1.1,0.4c-0.3,0.3-0.6,0.7-0.8,1.3c-0.2,0.6-0.3,1.3-0.3,2.2
			c0,1.3,0.2,2.2,0.5,2.9c0.4,0.6,0.9,1,1.6,1c0.3,0,0.5-0.1,0.8-0.2c0.2-0.1,0.5-0.4,0.6-0.6c0.2-0.3,0.3-0.6,0.4-1v-4.8
			C292.3,138.9,291.7,138.5,290.8,138.5z"/>
		<path fill="#FFFFFF" d="M300.3,138.8c-0.3-0.2-0.6-0.3-1.1-0.3c-0.8,0-1.3,0.2-1.6,0.6c0.2,0.1,0.4,0.2,0.5,0.3
			c0.1,0.2,0.2,0.4,0.2,0.6c0,0.3-0.1,0.5-0.3,0.6c-0.2,0.2-0.4,0.2-0.7,0.2c-0.3,0-0.5-0.1-0.6-0.3c-0.2-0.2-0.2-0.4-0.2-0.7
			c0-0.4,0.3-0.8,0.8-1.1c0.3-0.2,0.6-0.3,1-0.4c0.4-0.1,0.8-0.2,1.3-0.2c0.4,0,0.8,0.1,1.2,0.2c0.3,0.1,0.6,0.3,0.8,0.4
			c0.2,0.3,0.4,0.5,0.5,0.9c0.1,0.3,0.1,0.8,0.1,1.4v4.4c0,0.3,0,0.5,0.1,0.6c0.1,0.1,0.2,0.2,0.4,0.2c0.1,0,0.3,0,0.4-0.1
			c0.1-0.1,0.2-0.1,0.4-0.3l0.2,0.3c-0.2,0.1-0.3,0.3-0.5,0.3s-0.3,0.1-0.4,0.2c-0.2,0-0.3,0.1-0.6,0.1c-0.5,0-0.9-0.1-1.1-0.4
			c-0.2-0.3-0.3-0.6-0.3-1c-0.3,0.5-0.7,0.9-1.1,1.1s-0.9,0.3-1.3,0.3c-0.4,0-0.7-0.1-1-0.2c-0.3-0.1-0.6-0.3-0.7-0.6
			c-0.2-0.3-0.3-0.6-0.3-1c0-0.4,0.1-0.8,0.3-1c0.2-0.3,0.5-0.5,0.8-0.8c0.4-0.2,0.8-0.5,1.4-0.7c0.1,0,0.4-0.1,0.8-0.3
			c0.4-0.2,0.7-0.3,0.9-0.5c0.2-0.2,0.3-0.3,0.3-0.5v-1C300.7,139.5,300.5,139.1,300.3,138.8z M300.3,142.1
			c-0.2,0.1-0.6,0.3-1.1,0.6c-0.3,0.1-0.6,0.3-0.8,0.4c-0.2,0.2-0.4,0.4-0.5,0.6c-0.2,0.3-0.2,0.6-0.2,1c0,0.5,0.1,0.8,0.4,1.1
			c0.2,0.2,0.5,0.4,0.9,0.4c0.7,0,1.3-0.4,1.8-1.2v-3.1C300.6,141.9,300.5,142,300.3,142.1z"/>
		<path fill="#FFFFFF" d="M306.6,145.8c0.1,0.2,0.2,0.3,0.4,0.4c0.2,0.1,0.4,0.1,0.7,0.1v0.3c-1,0-1.6-0.1-1.9-0.1s-1,0-1.9,0.1
			v-0.3c0.3,0,0.5,0,0.7-0.1c0.2-0.1,0.3-0.2,0.4-0.4c0.1-0.2,0.1-0.4,0.1-0.7V136c0-0.5-0.1-0.9-0.3-1.1c-0.2-0.2-0.5-0.3-0.9-0.3
			v-0.3c0.3,0,0.7,0,1,0c0.7,0,1.2-0.1,1.7-0.2v11.1C306.5,145.4,306.6,145.7,306.6,145.8z"/>
		<path fill="#FFFFFF" d="M314.7,145.8c-0.3,0.3-0.6,0.6-1,0.8s-0.9,0.3-1.4,0.3c-0.8,0-1.4-0.2-2-0.5s-1-0.8-1.3-1.5
			c-0.3-0.6-0.4-1.4-0.4-2.2c0-0.9,0.1-1.7,0.4-2.4c0.3-0.7,0.7-1.2,1.3-1.6s1.2-0.6,1.9-0.6c1,0,1.7,0.3,2.2,0.9
			c0.5,0.6,0.8,1.5,0.8,2.6h-5c0,0.3-0.1,0.6-0.1,1c0,0.7,0.1,1.3,0.3,1.8c0.2,0.5,0.5,0.9,0.9,1.2s0.8,0.4,1.2,0.4
			c1.1,0,1.9-0.5,2.4-1.6l0.3,0.1C315.2,145.1,315,145.4,314.7,145.8z M313.6,139.9c-0.1-0.4-0.3-0.8-0.5-1.1
			c-0.2-0.3-0.5-0.4-0.9-0.4c-0.3,0-0.6,0.1-0.9,0.3s-0.5,0.5-0.7,1c-0.2,0.4-0.3,1-0.4,1.6h3.5
			C313.8,140.8,313.7,140.4,313.6,139.9z"/>
		<path fill="#FFFFFF" d="M329.7,146.3v0.3c-0.4,0-1,0-1.7,0c-0.9,0-1.6,0-2,0v-0.3c0.4,0,0.7-0.1,0.9-0.1c0.2-0.1,0.3-0.2,0.3-0.4
			c0-0.2-0.1-0.4-0.2-0.8l-1-2.6H322l-0.7,1.7c-0.2,0.5-0.3,1-0.3,1.3c0,0.3,0.1,0.6,0.3,0.7c0.2,0.1,0.6,0.2,1.1,0.2v0.3
			c-0.6,0-1.2,0-1.8,0c-0.5,0-0.9,0-1.2,0v-0.3c0.5-0.1,1-0.6,1.3-1.4l3.8-9.7h0.3l3.9,10.1C328.8,145.9,329.2,146.3,329.7,146.3z
			 M323.9,137.2l-1.8,4.8h3.6L323.9,137.2z"/>
		<path fill="#FFFFFF" d="M336.1,138.4c0.5,0,0.9,0,1.2,0v0.3c-0.2,0-0.4,0.1-0.6,0.3c-0.2,0.2-0.3,0.4-0.5,0.8l-2.6,6.9h-0.3
			l-2.9-7.1c-0.2-0.4-0.3-0.6-0.5-0.7c-0.2-0.1-0.3-0.2-0.5-0.2v-0.3c0.6,0,1,0.1,1.4,0.1c0.8,0,1.5,0,2.1-0.1v0.3
			c-0.3,0-0.5,0-0.6,0c-0.1,0-0.3,0.1-0.4,0.1s-0.1,0.2-0.1,0.4c0,0.2,0.1,0.4,0.2,0.7l2,4.9l1.8-4.6c0.1-0.3,0.2-0.5,0.2-0.7
			c0-0.2-0.1-0.4-0.3-0.5c-0.2-0.1-0.5-0.2-0.9-0.2v-0.3C335.3,138.4,335.8,138.4,336.1,138.4z"/>
		<path fill="#FFFFFF" d="M344,145.8c-0.3,0.3-0.6,0.6-1,0.8s-0.9,0.3-1.4,0.3c-0.8,0-1.4-0.2-2-0.5s-1-0.8-1.3-1.5
			c-0.3-0.6-0.4-1.4-0.4-2.2c0-0.9,0.1-1.7,0.4-2.4c0.3-0.7,0.7-1.2,1.3-1.6s1.2-0.6,1.9-0.6c1,0,1.7,0.3,2.2,0.9
			c0.5,0.6,0.8,1.5,0.8,2.6h-5c0,0.3-0.1,0.6-0.1,1c0,0.7,0.1,1.3,0.3,1.8c0.2,0.5,0.5,0.9,0.9,1.2s0.8,0.4,1.2,0.4
			c1.1,0,1.9-0.5,2.4-1.6l0.3,0.1C344.5,145.1,344.3,145.4,344,145.8z M342.9,139.9c-0.1-0.4-0.3-0.8-0.5-1.1
			c-0.2-0.3-0.5-0.4-0.9-0.4c-0.3,0-0.6,0.1-0.9,0.3s-0.5,0.5-0.7,1c-0.2,0.4-0.3,1-0.4,1.6h3.5C343.1,140.8,343,140.4,342.9,139.9z
			"/>
		<path fill="#FFFFFF" d="M349.6,138.6c0.5-0.3,1-0.5,1.6-0.5c0.7,0,1.3,0.2,1.7,0.6c0.2,0.2,0.3,0.5,0.4,0.8s0.1,0.8,0.1,1.3v4.3
			c0,0.3,0,0.5,0.1,0.7c0.1,0.2,0.2,0.3,0.4,0.4c0.2,0.1,0.4,0.1,0.7,0.1v0.3c-1,0-1.6-0.1-1.9-0.1c-0.3,0-0.9,0-1.8,0.1v-0.3
			c0.3,0,0.5,0,0.6-0.1c0.1-0.1,0.3-0.2,0.3-0.4c0.1-0.2,0.1-0.4,0.1-0.7v-4.6c0-0.4,0-0.7-0.1-1c-0.1-0.3-0.2-0.5-0.4-0.6
			c-0.2-0.2-0.5-0.2-0.8-0.2c-0.4,0-0.8,0.1-1.2,0.4c-0.3,0.3-0.6,0.6-0.8,1.1s-0.3,0.9-0.3,1.5v3.6c0,0.3,0,0.5,0.1,0.7
			c0.1,0.2,0.2,0.3,0.3,0.4c0.2,0.1,0.4,0.1,0.6,0.1v0.3c-0.9,0-1.5-0.1-1.8-0.1s-0.9,0-1.9,0.1v-0.3c0.3,0,0.5,0,0.7-0.1
			c0.2-0.1,0.3-0.2,0.4-0.4c0.1-0.2,0.1-0.4,0.1-0.7v-5c0-0.5-0.1-0.9-0.3-1.1c-0.2-0.2-0.5-0.3-0.9-0.3v-0.3c0.3,0,0.7,0,1,0
			c0.7,0,1.2-0.1,1.7-0.2v1.9C348.7,139.4,349.1,138.9,349.6,138.6z"/>
		<path fill="#FFFFFF" d="M362.9,146c0.2,0.2,0.5,0.3,0.9,0.3v0.3c-0.3,0-0.7,0-1,0c-0.7,0-1.2,0.1-1.7,0.2v-1.9
			c-0.3,0.7-0.6,1.1-1.1,1.5s-1,0.5-1.5,0.5c-0.7,0-1.3-0.2-1.7-0.6c-0.2-0.2-0.3-0.5-0.4-0.8c-0.1-0.3-0.1-0.8-0.1-1.3v-4
			c0-0.5-0.1-0.9-0.3-1.1c-0.2-0.2-0.5-0.3-0.9-0.3v-0.3c0.3,0,0.7,0,1,0c0.7,0,1.2-0.1,1.7-0.2v6.3c0,0.4,0,0.7,0.1,1
			s0.2,0.5,0.3,0.6c0.2,0.2,0.4,0.2,0.8,0.2c0.4,0,0.8-0.1,1.1-0.4c0.3-0.3,0.6-0.6,0.8-1c0.2-0.4,0.3-0.9,0.3-1.5v-3.3
			c0-0.5-0.1-0.9-0.3-1.1c-0.2-0.2-0.5-0.3-0.9-0.3v-0.3c0.3,0,0.7,0,1,0c0.7,0,1.2-0.1,1.7-0.2v6.7
			C362.6,145.4,362.7,145.8,362.9,146z"/>
		<path fill="#FFFFFF" d="M371,145.8c-0.3,0.3-0.6,0.6-1,0.8s-0.9,0.3-1.4,0.3c-0.8,0-1.4-0.2-2-0.5s-1-0.8-1.3-1.5
			c-0.3-0.6-0.4-1.4-0.4-2.2c0-0.9,0.1-1.7,0.4-2.4c0.3-0.7,0.7-1.2,1.3-1.6s1.2-0.6,1.9-0.6c1,0,1.7,0.3,2.2,0.9
			c0.5,0.6,0.8,1.5,0.8,2.6h-5c0,0.3-0.1,0.6-0.1,1c0,0.7,0.1,1.3,0.3,1.8c0.2,0.5,0.5,0.9,0.9,1.2s0.8,0.4,1.2,0.4
			c1.1,0,1.9-0.5,2.4-1.6l0.3,0.1C371.5,145.1,371.3,145.4,371,145.8z M369.8,139.9c-0.1-0.4-0.3-0.8-0.5-1.1
			c-0.2-0.3-0.5-0.4-0.9-0.4c-0.3,0-0.6,0.1-0.9,0.3s-0.5,0.5-0.7,1c-0.2,0.4-0.3,1-0.4,1.6h3.5C370,140.8,370,140.4,369.8,139.9z"
			/>
	</g>
	<ellipse clip-path="url(#SVGID_2_)" fill="none" cx="203.5" cy="146.3" rx="226.5" ry="167.7"/>
</g>
</svg>
