<?xml version="1.0" encoding="utf-8"?>
<!-- Generator: Adobe Illustrator 18.1.1, SVG Export Plug-In . SVG Version: 6.00 Build 0)  -->
<svg version="1.1" xmlns="http://www.w3.org/2000/svg" xmlns:xlink="http://www.w3.org/1999/xlink" x="0px" y="0px"
	 viewBox="0 0 444 324" enable-background="new 0 0 444 324" xml:space="preserve">
<g id="Layer_4" display="none">
	<rect x="-110" y="-131" display="inline" fill="#5F6862" width="599" height="584"/>
</g>
<g id="Layer_5">
	<g>
		<defs>
			<rect id="SVGID_1_" width="444" height="324"/>
		</defs>
		<clipPath id="SVGID_2_">
			<use xlink:href="#SVGID_1_"  overflow="visible"/>
		</clipPath>
		<polygon clip-path="url(#SVGID_2_)" fill="#FFFFFF" points="-43.2,49.7 451.3,55 451.3,73 -92.7,65.7 -92.7,45 		"/>
		<path clip-path="url(#SVGID_2_)" fill="#FFFFFF" d="M158.7-76.3c0,0,2.7,288,2,304c-0.7,16-4.7,58.7-14.7,74
			c-10,15.3-87.3,116-87.3,116h16c0,0,79.3-112,85.3-120.7s16-48,15.3-61.3c-0.7-13.3,1-350.7,1-350.7h-15.7L158.7-76.3z"/>
		<path clip-path="url(#SVGID_2_)" fill="#FFFFFF" d="M-74.5,121.5c35.8,21.5,43,35.5,78.5,37s453,4,453,4v17c0,0-430-5.5-449-5.5
			s-53-7.8-72-29.2S-92.7,119-92.7,119L-74.5,121.5z"/>
		<polygon clip-path="url(#SVGID_2_)" fill="#FFFFFF" points="104.5,64.5 102.5,166.9 110,167 112,68.4 		"/>
		<polygon clip-path="url(#SVGID_2_)" fill="#FFFFFF" points="383,-81 379,384.5 392.5,384.5 400,-81 		"/>
		<path clip-path="url(#SVGID_2_)" fill="#FFFFFF" d="M34,170c0,0-4.5,18.5,0,25s101.5,71.5,101.5,71.5s15,7.6,39.9,10.5
			c32.9,3.8,281.6,3.5,281.6,3.5l2.5,13c0,0-265.1,0.6-280.2-0.5s-31.8-4.5-51.3-15s-86.5-59.5-96-67.5s-10.5-28-10-40.5
			C38,170,34,170,34,170z"/>
		<g clip-path="url(#SVGID_2_)">
			<text transform="matrix(1 0 0 1 32 62.5)" font-family="'Montserrat-Light'" font-size="14">13th St W</text>
		</g>
		<g clip-path="url(#SVGID_2_)">
			<text transform="matrix(1 0 0 1 43.5 171.5)" font-family="'Montserrat-Light'" font-size="14">12th St W</text>
		</g>
		<g clip-path="url(#SVGID_2_)">
			<text transform="matrix(0.8036 0.5951 -0.5951 0.8036 56.9766 226.5048)" font-family="'Montserrat-Light'" font-size="14">8th St W</text>
		</g>
		<g clip-path="url(#SVGID_2_)">
			<text transform="matrix(1 -1.430000e-003 1.430000e-003 1 231.779 173.4716)" font-family="'Montserrat-Light'" font-size="14">12th St E</text>
		</g>
		<g clip-path="url(#SVGID_2_)">
			<text transform="matrix(1 0 0 1 189.8594 290.5)" font-family="'Montserrat-Light'" font-size="14">11th St E</text>
		</g>
		<g clip-path="url(#SVGID_2_)">
			<text transform="matrix(1 0 0 1 251.5 65.5)" font-family="'Montserrat-Light'" font-size="14">13th St E</text>
		</g>
		<g clip-path="url(#SVGID_2_)">
			<text transform="matrix(0 1 -1 0 163.5 114)" font-family="'Montserrat-Light'" font-size="14">Lonsdale Ave</text>
		</g>
		<g clip-path="url(#SVGID_2_)">
			<text transform="matrix(0 1 -1 0 384.5 80.5)" font-family="'Montserrat-Light'" font-size="14">St. Georges Ave</text>
		</g>
		<g clip-path="url(#SVGID_2_)">
			<path d="M223.1,103.2c0,9.9-16.3,46.1-16.3,46.1s-16.3-36.2-16.3-46.1s7.3-18,16.3-18S223.1,93.2,223.1,103.2z"/>
			<ellipse fill="#FFFFFF" cx="207.1" cy="102.5" rx="5.9" ry="5.7"/>
		</g>
		<g clip-path="url(#SVGID_2_)">
			<text transform="matrix(1 0 0 1 214.625 146.625)" fill="#FFFFFF" font-family="'PlayfairDisplay-Regular'" font-size="16">1200 Lonsdale Avenue</text>
		</g>
		<ellipse clip-path="url(#SVGID_2_)" fill="none" cx="203.5" cy="146.3" rx="226.5" ry="167.7"/>
	</g>
</g>
</svg>
